solid housing
facet normal -0.0 -0.0 -1.0
  outer loop
    vertex 4.076111853757738 -40.35183584596363 4.550000000000005
    vertex 0.07611185375773717 -41.55183584596363 4.550000000000005
    vertex 0.07611185375773717 -40.35183584596363 4.550000000000005
  endloop
endfacet
facet normal -0.0 -0.0 -1.0
  outer loop
    vertex 0.07611185375773717 -41.55183584596363 4.550000000000005
    vertex 4.076111853757738 -40.35183584596363 4.550000000000005
    vertex 4.076111853757738 -41.55183584596363 4.550000000000005
  endloop
endfacet
facet normal 1.0 0.0 0.0
  outer loop
    vertex 4.076111853757738 -40.35183584596363 4.550000000000005
    vertex 4.076111853757738 -41.55183584596363 5.550000000000005
    vertex 4.076111853757738 -41.55183584596363 4.550000000000005
  endloop
endfacet
facet normal 1.0 0.0 0.0
  outer loop
    vertex 4.076111853757738 -41.55183584596363 5.550000000000005
    vertex 4.076111853757738 -40.35183584596363 4.550000000000005
    vertex 4.076111853757738 -40.35183584596363 5.550000000000005
  endloop
endfacet
facet normal 0.0 0.0 1.0
  outer loop
    vertex 4.076111853757738 -41.55183584596363 5.550000000000005
    vertex 0.07611185375773717 -40.35183584596363 5.550000000000005
    vertex 0.07611185375773717 -41.55183584596363 5.550000000000005
  endloop
endfacet
facet normal 0.0 0.0 1.0
  outer loop
    vertex 0.07611185375773717 -40.35183584596363 5.550000000000005
    vertex 4.076111853757738 -41.55183584596363 5.550000000000005
    vertex 4.076111853757738 -40.35183584596363 5.550000000000005
  endloop
endfacet
facet normal -1.0 0.0 0.0
  outer loop
    vertex 0.07611185375773717 -40.35183584596363 5.550000000000005
    vertex 0.07611185375773717 -41.55183584596363 4.550000000000005
    vertex 0.07611185375773717 -41.55183584596363 5.550000000000005
  endloop
endfacet
facet normal -1.0 0.0 0.0
  outer loop
    vertex 0.07611185375773717 -41.55183584596363 4.550000000000005
    vertex 0.07611185375773717 -40.35183584596363 5.550000000000005
    vertex 0.07611185375773717 -40.35183584596363 4.550000000000005
  endloop
endfacet
facet normal 0.0 1.0 0.0
  outer loop
    vertex 0.07611185375773717 -40.35183584596363 5.550000000000005
    vertex 4.076111853757738 -40.35183584596363 4.550000000000005
    vertex 0.07611185375773717 -40.35183584596363 4.550000000000005
  endloop
endfacet
facet normal 0.0 1.0 0.0
  outer loop
    vertex 4.076111853757738 -40.35183584596363 4.550000000000005
    vertex 0.07611185375773717 -40.35183584596363 5.550000000000005
    vertex 4.076111853757738 -40.35183584596363 5.550000000000005
  endloop
endfacet
facet normal 0.0 -1.0 0.0
  outer loop
    vertex 4.076111853757738 -41.55183584596363 5.550000000000005
    vertex 0.07611185375773717 -41.55183584596363 4.550000000000005
    vertex 4.076111853757738 -41.55183584596363 4.550000000000005
  endloop
endfacet
facet normal 0.0 -1.0 0.0
  outer loop
    vertex 0.07611185375773717 -41.55183584596363 4.550000000000005
    vertex 4.076111853757738 -41.55183584596363 5.550000000000005
    vertex 0.07611185375773717 -41.55183584596363 5.550000000000005
  endloop
endfacet
facet normal -0.0 -0.0 -1.0
  outer loop
    vertex 13.576111853757736 -17.63183584596364 4.550000000000005
    vertex 10.576111853757736 -19.63183584596364 4.550000000000005
    vertex 10.576111853757736 -17.63183584596364 4.550000000000005
  endloop
endfacet
facet normal -0.0 -0.0 -1.0
  outer loop
    vertex 10.576111853757736 -19.63183584596364 4.550000000000005
    vertex 13.576111853757736 -17.63183584596364 4.550000000000005
    vertex 13.576111853757736 -19.63183584596364 4.550000000000005
  endloop
endfacet
facet normal 1.0 0.0 0.0
  outer loop
    vertex 13.576111853757736 -17.63183584596364 4.550000000000005
    vertex 13.576111853757736 -19.63183584596364 5.550000000000005
    vertex 13.576111853757736 -19.63183584596364 4.550000000000005
  endloop
endfacet
facet normal 1.0 0.0 0.0
  outer loop
    vertex 13.576111853757736 -19.63183584596364 5.550000000000005
    vertex 13.576111853757736 -17.63183584596364 4.550000000000005
    vertex 13.576111853757736 -17.63183584596364 5.550000000000005
  endloop
endfacet
facet normal 0.0 0.0 1.0
  outer loop
    vertex 13.576111853757736 -19.63183584596364 5.550000000000005
    vertex 10.576111853757736 -17.63183584596364 5.550000000000005
    vertex 10.576111853757736 -19.63183584596364 5.550000000000005
  endloop
endfacet
facet normal 0.0 0.0 1.0
  outer loop
    vertex 10.576111853757736 -17.63183584596364 5.550000000000005
    vertex 13.576111853757736 -19.63183584596364 5.550000000000005
    vertex 13.576111853757736 -17.63183584596364 5.550000000000005
  endloop
endfacet
facet normal -1.0 0.0 0.0
  outer loop
    vertex 10.576111853757736 -17.63183584596364 5.550000000000005
    vertex 10.576111853757736 -19.63183584596364 4.550000000000005
    vertex 10.576111853757736 -19.63183584596364 5.550000000000005
  endloop
endfacet
facet normal -1.0 0.0 0.0
  outer loop
    vertex 10.576111853757736 -19.63183584596364 4.550000000000005
    vertex 10.576111853757736 -17.63183584596364 5.550000000000005
    vertex 10.576111853757736 -17.63183584596364 4.550000000000005
  endloop
endfacet
facet normal 0.0 1.0 0.0
  outer loop
    vertex 10.576111853757736 -17.63183584596364 5.550000000000005
    vertex 13.576111853757736 -17.63183584596364 4.550000000000005
    vertex 10.576111853757736 -17.63183584596364 4.550000000000005
  endloop
endfacet
facet normal 0.0 1.0 0.0
  outer loop
    vertex 13.576111853757736 -17.63183584596364 4.550000000000005
    vertex 10.576111853757736 -17.63183584596364 5.550000000000005
    vertex 13.576111853757736 -17.63183584596364 5.550000000000005
  endloop
endfacet
facet normal 0.0 -1.0 0.0
  outer loop
    vertex 13.576111853757736 -19.63183584596364 5.550000000000005
    vertex 10.576111853757736 -19.63183584596364 4.550000000000005
    vertex 13.576111853757736 -19.63183584596364 4.550000000000005
  endloop
endfacet
facet normal 0.0 -1.0 0.0
  outer loop
    vertex 10.576111853757736 -19.63183584596364 4.550000000000005
    vertex 13.576111853757736 -19.63183584596364 5.550000000000005
    vertex 10.576111853757736 -19.63183584596364 5.550000000000005
  endloop
endfacet
facet normal -0.0 -0.0 -1.0
  outer loop
    vertex -6.423888146242262 -17.63183584596364 4.550000000000005
    vertex -9.423888146242263 -19.63183584596364 4.550000000000005
    vertex -9.423888146242263 -17.63183584596364 4.550000000000005
  endloop
endfacet
facet normal -0.0 -0.0 -1.0
  outer loop
    vertex -9.423888146242263 -19.63183584596364 4.550000000000005
    vertex -6.423888146242262 -17.63183584596364 4.550000000000005
    vertex -6.423888146242262 -19.63183584596364 4.550000000000005
  endloop
endfacet
facet normal 1.0 0.0 0.0
  outer loop
    vertex -6.423888146242262 -17.63183584596364 4.550000000000005
    vertex -6.423888146242262 -19.63183584596364 5.550000000000005
    vertex -6.423888146242262 -19.63183584596364 4.550000000000005
  endloop
endfacet
facet normal 1.0 0.0 0.0
  outer loop
    vertex -6.423888146242262 -19.63183584596364 5.550000000000005
    vertex -6.423888146242262 -17.63183584596364 4.550000000000005
    vertex -6.423888146242262 -17.63183584596364 5.550000000000005
  endloop
endfacet
facet normal 0.0 0.0 1.0
  outer loop
    vertex -6.423888146242262 -19.63183584596364 5.550000000000005
    vertex -9.423888146242263 -17.63183584596364 5.550000000000005
    vertex -9.423888146242263 -19.63183584596364 5.550000000000005
  endloop
endfacet
facet normal 0.0 0.0 1.0
  outer loop
    vertex -9.423888146242263 -17.63183584596364 5.550000000000005
    vertex -6.423888146242262 -19.63183584596364 5.550000000000005
    vertex -6.423888146242262 -17.63183584596364 5.550000000000005
  endloop
endfacet
facet normal -1.0 0.0 0.0
  outer loop
    vertex -9.423888146242263 -17.63183584596364 5.550000000000005
    vertex -9.423888146242263 -19.63183584596364 4.550000000000005
    vertex -9.423888146242263 -19.63183584596364 5.550000000000005
  endloop
endfacet
facet normal -1.0 0.0 0.0
  outer loop
    vertex -9.423888146242263 -19.63183584596364 4.550000000000005
    vertex -9.423888146242263 -17.63183584596364 5.550000000000005
    vertex -9.423888146242263 -17.63183584596364 4.550000000000005
  endloop
endfacet
facet normal 0.0 1.0 0.0
  outer loop
    vertex -9.423888146242263 -17.63183584596364 5.550000000000005
    vertex -6.423888146242262 -17.63183584596364 4.550000000000005
    vertex -9.423888146242263 -17.63183584596364 4.550000000000005
  endloop
endfacet
facet normal 0.0 1.0 0.0
  outer loop
    vertex -6.423888146242262 -17.63183584596364 4.550000000000005
    vertex -9.423888146242263 -17.63183584596364 5.550000000000005
    vertex -6.423888146242262 -17.63183584596364 5.550000000000005
  endloop
endfacet
facet normal 0.0 -1.0 0.0
  outer loop
    vertex -6.423888146242262 -19.63183584596364 5.550000000000005
    vertex -9.423888146242263 -19.63183584596364 4.550000000000005
    vertex -6.423888146242262 -19.63183584596364 4.550000000000005
  endloop
endfacet
facet normal 0.0 -1.0 0.0
  outer loop
    vertex -9.423888146242263 -19.63183584596364 4.550000000000005
    vertex -6.423888146242262 -19.63183584596364 5.550000000000005
    vertex -9.423888146242263 -19.63183584596364 5.550000000000005
  endloop
endfacet
facet normal 0.9951847266721775 0.09801714032975746 5.959482149757943e-17
  outer loop
    vertex 20.765951910679167 -20.675190430740486 4.550000000000005
    vertex 20.773649472118674 -20.75334508360475 6.550000000000006
    vertex 20.773649472118674 -20.75334508360475 4.550000000000005
  endloop
endfacet
facet normal 0.9951847266721775 0.09801714032975746 5.959482149757943e-17
  outer loop
    vertex 20.773649472118674 -20.75334508360475 6.550000000000006
    vertex 20.765951910679167 -20.675190430740486 4.550000000000005
    vertex 20.765951910679167 -20.675190430740486 6.550000000000006
  endloop
endfacet
facet normal 0.0 -1.0 6.855854730361758e-17
  outer loop
    vertex 22.27611185375828 -38.8600178070313 6.550000000000006
    vertex 20.785772127079042 -38.8600178070313 4.550000000000007
    vertex 22.27611185375828 -38.8600178070313 4.550000000000007
  endloop
endfacet
facet normal 0.0 -1.0 6.855854730361758e-17
  outer loop
    vertex 20.785772127079042 -38.8600178070313 4.550000000000007
    vertex 22.27611185375828 -38.8600178070313 6.550000000000006
    vertex 20.785772127079042 -38.8600178070313 6.550000000000006
  endloop
endfacet
facet normal 0.9359059267573021 0.35225004792129605 3.821490410536229e-17
  outer loop
    vertex 20.684866277103666 -20.372574726472788 4.550000000000005
    vertex 20.712529463122195 -20.446074048617714 6.550000000000006
    vertex 20.712529463122195 -20.446074048617714 4.550000000000005
  endloop
endfacet
facet normal 0.9359059267573021 0.35225004792129605 3.821490410536229e-17
  outer loop
    vertex 20.712529463122195 -20.446074048617714 6.550000000000006
    vertex 20.684866277103666 -20.372574726472788 4.550000000000005
    vertex 20.684866277103666 -20.372574726472788 6.550000000000006
  endloop
endfacet
facet normal 0.9738769792773248 -0.22707626303441134 8.046289837631652e-17
  outer loop
    vertex 20.75315927144838 -39.385965134334484 4.550000000000007
    vertex 20.73532633447142 -39.46244642992518 6.550000000000006
    vertex 20.73532633447142 -39.46244642992518 4.550000000000007
  endloop
endfacet
facet normal 0.9738769792773248 -0.22707626303441134 8.046289837631652e-17
  outer loop
    vertex 20.73532633447142 -39.46244642992518 6.550000000000006
    vertex 20.75315927144838 -39.385965134334484 4.550000000000007
    vertex 20.75315927144838 -39.385965134334484 6.550000000000006
  endloop
endfacet
facet normal 0.973876979277326 0.22707626303440667 4.932686093477013e-17
  outer loop
    vertex 20.73532633447142 -20.52122526200212 4.550000000000005
    vertex 20.753159271448375 -20.597706557592787 6.550000000000006
    vertex 20.753159271448375 -20.597706557592787 4.550000000000005
  endloop
endfacet
facet normal 0.973876979277326 0.22707626303440667 4.932686093477013e-17
  outer loop
    vertex 20.753159271448375 -20.597706557592787 6.550000000000006
    vertex 20.73532633447142 -20.52122526200212 4.550000000000005
    vertex 20.73532633447142 -20.52122526200212 6.550000000000006
  endloop
endfacet
facet normal 0.9108638249211574 -0.41270702980443547 8.899055455035645e-17
  outer loop
    vertex 20.684866277103673 -39.61109696545449 4.550000000000007
    vertex 20.652455234425332 -39.68262966097865 6.550000000000006
    vertex 20.652455234425332 -39.68262966097865 4.550000000000007
  endloop
endfacet
facet normal 0.9108638249211574 -0.41270702980443547 8.899055455035645e-17
  outer loop
    vertex 20.652455234425332 -39.68262966097865 6.550000000000006
    vertex 20.684866277103673 -39.61109696545449 4.550000000000007
    vertex 20.684866277103673 -39.61109696545449 6.550000000000006
  endloop
endfacet
facet normal 0.7730104533626357 -0.6343932841637687 9.500309958209133e-17
  outer loop
    vertex 20.528220861880524 -39.88241478339372 4.550000000000007
    vertex 20.478400174751364 -39.94312146630781 6.550000000000006
    vertex 20.478400174751364 -39.94312146630781 4.550000000000007
  endloop
endfacet
facet normal 0.7730104533626357 -0.6343932841637687 9.500309958209133e-17
  outer loop
    vertex 20.478400174751364 -39.94312146630781 6.550000000000006
    vertex 20.528220861880524 -39.88241478339372 4.550000000000007
    vertex 20.528220861880524 -39.88241478339372 6.550000000000006
  endloop
endfacet
facet normal 0.8819212643483366 -0.471396736826032 9.108563063246079e-17
  outer loop
    vertex 20.652455234425332 -39.68262966097865 4.550000000000007
    vertex 20.615435124147712 -39.751889415898 6.550000000000006
    vertex 20.615435124147712 -39.751889415898 4.550000000000007
  endloop
endfacet
facet normal 0.8819212643483366 -0.471396736826032 9.108563063246079e-17
  outer loop
    vertex 20.615435124147712 -39.751889415898 6.550000000000006
    vertex 20.652455234425332 -39.68262966097865 4.550000000000007
    vertex 20.652455234425332 -39.68262966097865 6.550000000000006
  endloop
endfacet
facet normal 0.9999999999991482 -1.3051997190686139e-06 1.2594627080478335e-10
  outer loop
    vertex 22.276111853758326 -21.123653884895013 4.550000000000005
    vertex 22.27611185375828 -38.8600178070313 6.550000000000006
    vertex 22.27611185375828 -38.8600178070313 4.550000000000007
  endloop
endfacet
facet normal 0.9999999999991482 -1.3051997190686139e-06 1.2594627080478335e-10
  outer loop
    vertex 22.27611185375828 -38.8600178070313 6.550000000000006
    vertex 22.276111853758326 -21.123653884895013 4.550000000000005
    vertex 22.27608193216312 -34.19130512506546 6.550000000000006
  endloop
endfacet
facet normal 0.9999999999991482 -1.3051997190686139e-06 1.2594627080478335e-10
  outer loop
    vertex 22.27608193216312 -34.19130512506546 6.550000000000006
    vertex 22.276111853758326 -21.123653884895013 4.550000000000005
    vertex 22.276141775353477 -25.791305122081123 6.550000000000006
  endloop
endfacet
facet normal 0.9999999999991482 -1.3051997190686139e-06 1.2594627080478335e-10
  outer loop
    vertex 22.276141775353477 -25.791305122081123 6.550000000000006
    vertex 22.276111853758326 -21.123653884895013 4.550000000000005
    vertex 22.276111853758326 -21.123653884895013 6.550000000000006
  endloop
endfacet
facet normal 0.9569403357322303 -0.2902846772543924 8.366779197903105e-17
  outer loop
    vertex 20.73532633447142 -39.46244642992518 4.550000000000007
    vertex 20.71252946312221 -39.53759764330956 6.550000000000006
    vertex 20.71252946312221 -39.53759764330956 4.550000000000007
  endloop
endfacet
facet normal 0.9569403357322303 -0.2902846772543924 8.366779197903105e-17
  outer loop
    vertex 20.71252946312221 -39.53759764330956 6.550000000000006
    vertex 20.73532633447142 -39.46244642992518 4.550000000000007
    vertex 20.73532633447142 -39.46244642992518 6.550000000000006
  endloop
endfacet
facet normal 0.634393284163617 -0.7730104533627604 9.526965269313163e-17
  outer loop
    vertex 20.367397474102447 -40.054124166956726 6.550000000000006
    vertex 20.306690791188363 -40.103944854085874 4.550000000000007
    vertex 20.367397474102447 -40.054124166956726 4.550000000000007
  endloop
endfacet
facet normal 0.634393284163617 -0.7730104533627604 9.526965269313163e-17
  outer loop
    vertex 20.306690791188363 -40.103944854085874 4.550000000000007
    vertex 20.367397474102447 -40.054124166956726 6.550000000000006
    vertex 20.306690791188363 -40.103944854085874 6.550000000000006
  endloop
endfacet
facet normal 0.35225004792125175 -0.9359059267573188 8.763674506284723e-17
  outer loop
    vertex 20.035372973249093 -40.26059026930905 6.550000000000006
    vertex 19.961873651104167 -40.28825345532758 4.550000000000007
    vertex 20.035372973249093 -40.26059026930905 4.550000000000007
  endloop
endfacet
facet normal 0.35225004792125175 -0.9359059267573188 8.763674506284723e-17
  outer loop
    vertex 19.961873651104167 -40.28825345532758 4.550000000000007
    vertex 20.035372973249093 -40.26059026930905 6.550000000000006
    vertex 19.961873651104167 -40.28825345532758 6.550000000000006
  endloop
endfacet
facet normal 0.9108638249211535 0.4127070298044441 3.240136569958982e-17
  outer loop
    vertex 20.65245523442532 -20.30104203094862 4.550000000000005
    vertex 20.684866277103666 -20.372574726472788 6.550000000000006
    vertex 20.684866277103666 -20.372574726472788 4.550000000000005
  endloop
endfacet
facet normal 0.9108638249211535 0.4127070298044441 3.240136569958982e-17
  outer loop
    vertex 20.684866277103666 -20.372574726472788 6.550000000000006
    vertex 20.65245523442532 -20.30104203094862 4.550000000000005
    vertex 20.65245523442532 -20.30104203094862 6.550000000000006
  endloop
endfacet
facet normal 0.09801714032952102 -0.9951847266722008 7.475985039887628e-17
  outer loop
    vertex 19.73275726898143 -40.34167590288454 6.550000000000006
    vertex 19.65460261611715 -40.34937346432404 4.550000000000007
    vertex 19.73275726898143 -40.34167590288454 4.550000000000007
  endloop
endfacet
facet normal 0.09801714032952102 -0.9951847266722008 7.475985039887628e-17
  outer loop
    vertex 19.65460261611715 -40.34937346432404 4.550000000000007
    vertex 19.73275726898143 -40.34167590288454 6.550000000000006
    vertex 19.65460261611715 -40.34937346432404 6.550000000000006
  endloop
endfacet
facet normal 0.5824776968677962 -0.8128466845916196 9.454134037735011e-17
  outer loop
    vertex 20.306690791188363 -40.103944854085874 6.550000000000006
    vertex 20.24285565710366 -40.149688464271826 4.550000000000007
    vertex 20.306690791188363 -40.103944854085874 4.550000000000007
  endloop
endfacet
facet normal 0.5824776968677962 -0.8128466845916196 9.454134037735011e-17
  outer loop
    vertex 20.24285565710366 -40.149688464271826 4.550000000000007
    vertex 20.306690791188363 -40.103944854085874 6.550000000000006
    vertex 20.24285565710366 -40.149688464271826 6.550000000000006
  endloop
endfacet
facet normal 0.6835923020229119 -0.7298640726977977 9.559000573001859e-17
  outer loop
    vertex 20.424715750509847 -40.000439742715244 6.550000000000006
    vertex 20.367397474102447 -40.054124166956726 4.550000000000007
    vertex 20.424715750509847 -40.000439742715244 4.550000000000007
  endloop
endfacet
facet normal 0.6835923020229119 -0.7298640726977977 9.559000573001859e-17
  outer loop
    vertex 20.367397474102447 -40.054124166956726 4.550000000000007
    vertex 20.424715750509847 -40.000439742715244 6.550000000000006
    vertex 20.367397474102447 -40.054124166956726 6.550000000000006
  endloop
endfacet
facet normal 0.35225004792141335 0.9359059267572581 -4.0691956439793186e-17
  outer loop
    vertex 19.961873651104202 -19.695418236599718 6.550000000000006
    vertex 20.035372973249093 -19.72308142261825 4.550000000000005
    vertex 19.961873651104202 -19.695418236599718 4.550000000000005
  endloop
endfacet
facet normal 0.35225004792141335 0.9359059267572581 -4.0691956439793186e-17
  outer loop
    vertex 20.035372973249093 -19.72308142261825 4.550000000000005
    vertex 19.961873651104202 -19.695418236599718 6.550000000000006
    vertex 20.035372973249093 -19.72308142261825 6.550000000000006
  endloop
endfacet
facet normal 0.4713967368259832 -0.8819212643483628 9.18750464790135e-17
  outer loop
    vertex 20.17616542369266 -40.19115911635307 6.550000000000006
    vertex 20.106905668773297 -40.228179226630694 4.550000000000007
    vertex 20.17616542369266 -40.19115911635307 4.550000000000007
  endloop
endfacet
facet normal 0.4713967368259832 -0.8819212643483628 9.18750464790135e-17
  outer loop
    vertex 20.106905668773297 -40.228179226630694 4.550000000000007
    vertex 20.17616542369266 -40.19115911635307 6.550000000000006
    vertex 20.106905668773297 -40.228179226630694 6.550000000000006
  endloop
endfacet
facet normal 0.2902846772543502 -0.956940335732243 8.494973375282196e-17
  outer loop
    vertex 19.961873651104167 -40.28825345532758 6.550000000000006
    vertex 19.88672243771983 -40.31105032667678 4.550000000000007
    vertex 19.961873651104167 -40.28825345532758 4.550000000000007
  endloop
endfacet
facet normal 0.2902846772543502 -0.956940335732243 8.494973375282196e-17
  outer loop
    vertex 19.88672243771983 -40.31105032667678 4.550000000000007
    vertex 19.961873651104167 -40.28825345532758 6.550000000000006
    vertex 19.88672243771983 -40.31105032667678 6.550000000000006
  endloop
endfacet
facet normal 0.0327190828217835 -0.9994645874763654 7.070209600865014e-17
  outer loop
    vertex 19.65460261611715 -40.34937346432404 6.550000000000006
    vertex 19.579384638186532 -40.3518358459636 4.550000000000007
    vertex 19.65460261611715 -40.34937346432404 4.550000000000007
  endloop
endfacet
facet normal 0.0327190828217835 -0.9994645874763654 7.070209600865014e-17
  outer loop
    vertex 19.579384638186532 -40.3518358459636 4.550000000000007
    vertex 19.65460261611715 -40.34937346432404 6.550000000000006
    vertex 19.579384638186532 -40.3518358459636 6.550000000000006
  endloop
endfacet
facet normal 0.29028467725440316 0.9569403357322269 -4.626314479525072e-17
  outer loop
    vertex 19.88672243771984 -19.67262136525051 6.550000000000006
    vertex 19.961873651104202 -19.695418236599718 4.550000000000005
    vertex 19.88672243771984 -19.67262136525051 4.550000000000005
  endloop
endfacet
facet normal 0.29028467725440316 0.9569403357322269 -4.626314479525072e-17
  outer loop
    vertex 19.961873651104202 -19.695418236599718 4.550000000000005
    vertex 19.88672243771984 -19.67262136525051 6.550000000000006
    vertex 19.961873651104202 -19.695418236599718 6.550000000000006
  endloop
endfacet
facet normal 0.16289547339464933 -0.986643332084869 7.849747163236193e-17
  outer loop
    vertex 19.810241142129133 -40.328883263653736 6.550000000000006
    vertex 19.73275726898143 -40.34167590288454 4.550000000000007
    vertex 19.810241142129133 -40.328883263653736 4.550000000000007
  endloop
endfacet
facet normal 0.16289547339464933 -0.986643332084869 7.849747163236193e-17
  outer loop
    vertex 19.73275726898143 -40.34167590288454 4.550000000000007
    vertex 19.810241142129133 -40.328883263653736 6.550000000000006
    vertex 19.73275726898143 -40.34167590288454 6.550000000000006
  endloop
endfacet
facet normal 0.6343932841636107 0.7730104533627655 -1.0723294772992479e-17
  outer loop
    vertex 20.306690791188373 -19.879726837841424 6.550000000000006
    vertex 20.36739747410247 -19.92954752497058 4.550000000000005
    vertex 20.306690791188373 -19.879726837841424 4.550000000000005
  endloop
endfacet
facet normal 0.6343932841636107 0.7730104533627655 -1.0723294772992479e-17
  outer loop
    vertex 20.36739747410247 -19.92954752497058 4.550000000000005
    vertex 20.306690791188373 -19.879726837841424 6.550000000000006
    vertex 20.36739747410247 -19.92954752497058 6.550000000000006
  endloop
endfacet
facet normal 1.684125418887773e-15 -1.0 6.855854730361768e-17
  outer loop
    vertex 19.579384638186532 -40.3518358459636 4.550000000000007
    vertex -11.283888146241733 -40.351835845963656 6.550000000000003
    vertex -11.283888146241733 -40.351835845963656 4.550000000000004
  endloop
endfacet
facet normal 1.684125418887773e-15 -1.0 6.855854730361768e-17
  outer loop
    vertex -11.283888146241733 -40.351835845963656 6.550000000000003
    vertex 19.579384638186532 -40.3518358459636 4.550000000000007
    vertex 19.579384638186532 -40.3518358459636 6.550000000000006
  endloop
endfacet
facet normal 0.9866433320849095 -0.1628954733944042 7.691345028984767e-17
  outer loop
    vertex 20.765951910679167 -39.3084812611868 4.550000000000007
    vertex 20.75315927144838 -39.385965134334484 6.550000000000006
    vertex 20.75315927144838 -39.385965134334484 4.550000000000007
  endloop
endfacet
facet normal 0.9866433320849095 -0.1628954733944042 7.691345028984767e-17
  outer loop
    vertex 20.75315927144838 -39.385965134334484 6.550000000000006
    vertex 20.765951910679167 -39.3084812611868 4.550000000000007
    vertex 20.765951910679167 -39.3084812611868 6.550000000000006
  endloop
endfacet
facet normal 0.8128466845916026 0.5824776968678198 1.4230704151474203e-17
  outer loop
    vertex 20.52822086188054 -20.101256908533607 4.550000000000005
    vertex 20.573964472066457 -20.165092042618255 6.550000000000006
    vertex 20.573964472066457 -20.165092042618255 4.550000000000005
  endloop
endfacet
facet normal 0.8128466845916026 0.5824776968678198 1.4230704151474203e-17
  outer loop
    vertex 20.573964472066457 -20.165092042618255 6.550000000000006
    vertex 20.52822086188054 -20.101256908533607 4.550000000000005
    vertex 20.52822086188054 -20.101256908533607 6.550000000000006
  endloop
endfacet
facet normal 3.207255338779074e-33 1.0 -6.855854730361757e-17
  outer loop
    vertex -11.283888146241733 -19.63183584596364 6.550000000000003
    vertex 19.579384638185317 -19.63183584596364 4.550000000000005
    vertex -11.283888146241733 -19.63183584596364 4.550000000000004
  endloop
endfacet
facet normal 3.207255338779074e-33 1.0 -6.855854730361757e-17
  outer loop
    vertex 19.579384638185317 -19.63183584596364 4.550000000000005
    vertex -11.283888146241733 -19.63183584596364 6.550000000000003
    vertex 19.579384638185317 -19.63183584596364 6.550000000000006
  endloop
endfacet
facet normal 0.22707626303437828 0.9738769792773325 -5.1636227262220425e-17
  outer loop
    vertex 19.81024114212911 -19.654788428273548 6.550000000000006
    vertex 19.88672243771984 -19.67262136525051 4.550000000000005
    vertex 19.81024114212911 -19.654788428273548 4.550000000000005
  endloop
endfacet
facet normal 0.22707626303437828 0.9738769792773325 -5.1636227262220425e-17
  outer loop
    vertex 19.88672243771984 -19.67262136525051 4.550000000000005
    vertex 19.81024114212911 -19.654788428273548 6.550000000000006
    vertex 19.88672243771984 -19.67262136525051 6.550000000000006
  endloop
endfacet
facet normal 0.5824776968678228 0.8128466845916004 -1.691383537497331e-17
  outer loop
    vertex 20.242855657103622 -19.833983227655434 6.550000000000006
    vertex 20.306690791188373 -19.879726837841424 4.550000000000005
    vertex 20.242855657103622 -19.833983227655434 4.550000000000005
  endloop
endfacet
facet normal 0.5824776968678228 0.8128466845916004 -1.691383537497331e-17
  outer loop
    vertex 20.306690791188373 -19.879726837841424 4.550000000000005
    vertex 20.242855657103622 -19.833983227655434 6.550000000000006
    vertex 20.306690791188373 -19.879726837841424 6.550000000000006
  endloop
endfacet
facet normal 0.03271908282181068 0.9994645874763646 -6.634158438892602e-17
  outer loop
    vertex 19.579384638185317 -19.63183584596364 6.550000000000006
    vertex 19.65460261611711 -19.63429822760325 4.550000000000005
    vertex 19.579384638185317 -19.63183584596364 4.550000000000005
  endloop
endfacet
facet normal 0.03271908282181068 0.9994645874763646 -6.634158438892602e-17
  outer loop
    vertex 19.65460261611711 -19.63429822760325 4.550000000000005
    vertex 19.579384638185317 -19.63183584596364 6.550000000000006
    vertex 19.65460261611711 -19.63429822760325 6.550000000000006
  endloop
endfacet
facet normal 0.5280678506502925 0.8492021815266257 -2.3031948337236567e-17
  outer loop
    vertex 20.176165423692638 -19.79251257557421 6.550000000000006
    vertex 20.242855657103622 -19.833983227655434 4.550000000000005
    vertex 20.176165423692638 -19.79251257557421 4.550000000000005
  endloop
endfacet
facet normal 0.5280678506502925 0.8492021815266257 -2.3031948337236567e-17
  outer loop
    vertex 20.242855657103622 -19.833983227655434 4.550000000000005
    vertex 20.176165423692638 -19.79251257557421 6.550000000000006
    vertex 20.242855657103622 -19.833983227655434 6.550000000000006
  endloop
endfacet
facet normal 0.16289547339457083 0.986643332084882 -5.678819547672287e-17
  outer loop
    vertex 19.73275726898145 -19.64199578904275 6.550000000000006
    vertex 19.81024114212911 -19.654788428273548 4.550000000000005
    vertex 19.73275726898145 -19.64199578904275 4.550000000000005
  endloop
endfacet
facet normal 0.16289547339457083 0.986643332084882 -5.678819547672287e-17
  outer loop
    vertex 19.81024114212911 -19.654788428273548 4.550000000000005
    vertex 19.73275726898145 -19.64199578904275 6.550000000000006
    vertex 19.81024114212911 -19.654788428273548 6.550000000000006
  endloop
endfacet
facet normal 0.7730104533627491 0.6343932841636306 8.016935619230269e-18
  outer loop
    vertex 20.47840017475134 -20.040550225619455 4.550000000000005
    vertex 20.52822086188054 -20.101256908533607 6.550000000000006
    vertex 20.52822086188054 -20.101256908533607 4.550000000000005
  endloop
endfacet
facet normal 0.7730104533627491 0.6343932841636306 8.016935619230269e-18
  outer loop
    vertex 20.52822086188054 -20.101256908533607 6.550000000000006
    vertex 20.47840017475134 -20.040550225619455 4.550000000000005
    vertex 20.47840017475134 -20.040550225619455 6.550000000000006
  endloop
endfacet
facet normal 0.09801714032955139 0.9951847266721979 -6.16969879199091e-17
  outer loop
    vertex 19.65460261611711 -19.63429822760325 6.550000000000006
    vertex 19.73275726898145 -19.64199578904275 4.550000000000005
    vertex 19.65460261611711 -19.63429822760325 4.550000000000005
  endloop
endfacet
facet normal 0.09801714032955139 0.9951847266721979 -6.16969879199091e-17
  outer loop
    vertex 19.73275726898145 -19.64199578904275 4.550000000000005
    vertex 19.65460261611711 -19.63429822760325 6.550000000000006
    vertex 19.73275726898145 -19.64199578904275 6.550000000000006
  endloop
endfacet
facet normal 0.41270702980431334 0.9108638249212129 -3.494651887976396e-17
  outer loop
    vertex 20.035372973249093 -19.72308142261825 6.550000000000006
    vertex 20.106905668773326 -19.755492465296616 4.550000000000005
    vertex 20.035372973249093 -19.72308142261825 4.550000000000005
  endloop
endfacet
facet normal 0.41270702980431334 0.9108638249212129 -3.494651887976396e-17
  outer loop
    vertex 20.106905668773326 -19.755492465296616 4.550000000000005
    vertex 20.035372973249093 -19.72308142261825 6.550000000000006
    vertex 20.106905668773326 -19.755492465296616 6.550000000000006
  endloop
endfacet
facet normal 0.471396736826001 0.8819212643483533 -2.905143496077155e-17
  outer loop
    vertex 20.106905668773326 -19.755492465296616 6.550000000000006
    vertex 20.176165423692638 -19.79251257557421 4.550000000000005
    vertex 20.106905668773326 -19.755492465296616 4.550000000000005
  endloop
endfacet
facet normal 0.471396736826001 0.8819212643483533 -2.905143496077155e-17
  outer loop
    vertex 20.176165423692638 -19.79251257557421 4.550000000000005
    vertex 20.106905668773326 -19.755492465296616 6.550000000000006
    vertex 20.176165423692638 -19.79251257557421 6.550000000000006
  endloop
endfacet
facet normal 0.8819212643483456 0.47139673682601524 2.644907967154558e-17
  outer loop
    vertex 20.615435124147723 -20.231782276029303 4.550000000000005
    vertex 20.65245523442532 -20.30104203094862 6.550000000000006
    vertex 20.65245523442532 -20.30104203094862 4.550000000000005
  endloop
endfacet
facet normal 0.8819212643483456 0.47139673682601524 2.644907967154558e-17
  outer loop
    vertex 20.65245523442532 -20.30104203094862 6.550000000000006
    vertex 20.615435124147723 -20.231782276029303 4.550000000000005
    vertex 20.615435124147723 -20.231782276029303 6.550000000000006
  endloop
endfacet
facet normal 6.782410353373943e-17 -7.005836927904442e-17 -1.0
  outer loop
    vertex 19.579384638185317 -19.63183584596364 4.550000000000005
    vertex -11.283888146241733 -40.351835845963656 4.550000000000004
    vertex -11.283888146241733 -19.63183584596364 4.550000000000004
  endloop
endfacet
facet normal 6.782410353373943e-17 -7.005836927904442e-17 -1.0
  outer loop
    vertex -11.283888146241733 -40.351835845963656 4.550000000000004
    vertex 19.579384638185317 -19.63183584596364 4.550000000000005
    vertex 5.196111853758263 -34.822289962760614 4.5500000000000105
  endloop
endfacet
facet normal 6.782410353373943e-17 -7.005836927904442e-17 -1.0
  outer loop
    vertex 5.196111853758263 -34.822289962760614 4.5500000000000105
    vertex 19.579384638185317 -19.63183584596364 4.550000000000005
    vertex 10.006111853758284 -34.82228996276062 4.550000000000004
  endloop
endfacet
facet normal 6.782410353373943e-17 -7.005836927904442e-17 -1.0
  outer loop
    vertex 10.006111853758284 -34.82228996276062 4.550000000000004
    vertex 19.579384638185317 -19.63183584596364 4.550000000000005
    vertex 10.006111853758284 -36.43228996276062 4.550000000000004
  endloop
endfacet
facet normal 6.782410353373943e-17 -7.005836927904442e-17 -1.0
  outer loop
    vertex -11.283888146241733 -40.351835845963656 4.550000000000004
    vertex 5.196111853758263 -36.43228996276062 4.5500000000000105
    vertex 19.579384638186532 -40.3518358459636 4.550000000000007
  endloop
endfacet
facet normal 6.782410353373943e-17 -7.005836927904442e-17 -1.0
  outer loop
    vertex 5.196111853758263 -36.43228996276062 4.5500000000000105
    vertex -11.283888146241733 -40.351835845963656 4.550000000000004
    vertex 5.196111853758263 -34.822289962760614 4.5500000000000105
  endloop
endfacet
facet normal 6.782410353373943e-17 -7.005836927904442e-17 -1.0
  outer loop
    vertex 19.579384638186532 -40.3518358459636 4.550000000000007
    vertex 5.196111853758263 -36.43228996276062 4.5500000000000105
    vertex 10.006111853758284 -36.43228996276062 4.550000000000004
  endloop
endfacet
facet normal 6.782410353373943e-17 -7.005836927904442e-17 -1.0
  outer loop
    vertex 19.579384638186532 -40.3518358459636 4.550000000000007
    vertex 10.006111853758284 -36.43228996276062 4.550000000000004
    vertex 19.579384638185317 -19.63183584596364 4.550000000000005
  endloop
endfacet
facet normal 6.782410353373943e-17 -7.005836927904442e-17 -1.0
  outer loop
    vertex 19.579384638186532 -40.3518358459636 4.550000000000007
    vertex 19.579384638185317 -19.63183584596364 4.550000000000005
    vertex 19.65460261611711 -19.63429822760325 4.550000000000005
  endloop
endfacet
facet normal 6.782410353373943e-17 -7.005836927904442e-17 -1.0
  outer loop
    vertex 19.579384638186532 -40.3518358459636 4.550000000000007
    vertex 19.65460261611711 -19.63429822760325 4.550000000000005
    vertex 19.65460261611715 -40.34937346432404 4.550000000000007
  endloop
endfacet
facet normal 6.782410353373943e-17 -7.005836927904442e-17 -1.0
  outer loop
    vertex 19.65460261611715 -40.34937346432404 4.550000000000007
    vertex 19.65460261611711 -19.63429822760325 4.550000000000005
    vertex 19.73275726898145 -19.64199578904275 4.550000000000005
  endloop
endfacet
facet normal 6.782410353373943e-17 -7.005836927904442e-17 -1.0
  outer loop
    vertex 19.65460261611715 -40.34937346432404 4.550000000000007
    vertex 19.73275726898145 -19.64199578904275 4.550000000000005
    vertex 19.73275726898143 -40.34167590288454 4.550000000000007
  endloop
endfacet
facet normal 6.782410353373943e-17 -7.005836927904442e-17 -1.0
  outer loop
    vertex 19.73275726898143 -40.34167590288454 4.550000000000007
    vertex 19.73275726898145 -19.64199578904275 4.550000000000005
    vertex 19.810241142129133 -40.328883263653736 4.550000000000007
  endloop
endfacet
facet normal 6.782410353373943e-17 -7.005836927904442e-17 -1.0
  outer loop
    vertex 19.810241142129133 -40.328883263653736 4.550000000000007
    vertex 19.73275726898145 -19.64199578904275 4.550000000000005
    vertex 19.81024114212911 -19.654788428273548 4.550000000000005
  endloop
endfacet
facet normal 6.782410353373943e-17 -7.005836927904442e-17 -1.0
  outer loop
    vertex 19.810241142129133 -40.328883263653736 4.550000000000007
    vertex 19.81024114212911 -19.654788428273548 4.550000000000005
    vertex 19.88672243771984 -19.67262136525051 4.550000000000005
  endloop
endfacet
facet normal 6.782410353373943e-17 -7.005836927904442e-17 -1.0
  outer loop
    vertex 19.810241142129133 -40.328883263653736 4.550000000000007
    vertex 19.88672243771984 -19.67262136525051 4.550000000000005
    vertex 19.88672243771983 -40.31105032667678 4.550000000000007
  endloop
endfacet
facet normal 6.782410353373943e-17 -7.005836927904442e-17 -1.0
  outer loop
    vertex 19.88672243771983 -40.31105032667678 4.550000000000007
    vertex 19.88672243771984 -19.67262136525051 4.550000000000005
    vertex 19.961873651104167 -40.28825345532758 4.550000000000007
  endloop
endfacet
facet normal 6.782410353373943e-17 -7.005836927904442e-17 -1.0
  outer loop
    vertex 19.961873651104167 -40.28825345532758 4.550000000000007
    vertex 19.88672243771984 -19.67262136525051 4.550000000000005
    vertex 19.961873651104202 -19.695418236599718 4.550000000000005
  endloop
endfacet
facet normal 6.782410353373943e-17 -7.005836927904442e-17 -1.0
  outer loop
    vertex 19.961873651104167 -40.28825345532758 4.550000000000007
    vertex 19.961873651104202 -19.695418236599718 4.550000000000005
    vertex 20.035372973249093 -40.26059026930905 4.550000000000007
  endloop
endfacet
facet normal 6.782410353373943e-17 -7.005836927904442e-17 -1.0
  outer loop
    vertex 20.035372973249093 -40.26059026930905 4.550000000000007
    vertex 19.961873651104202 -19.695418236599718 4.550000000000005
    vertex 20.035372973249093 -19.72308142261825 4.550000000000005
  endloop
endfacet
facet normal 6.782410353373943e-17 -7.005836927904442e-17 -1.0
  outer loop
    vertex 20.035372973249093 -40.26059026930905 4.550000000000007
    vertex 20.035372973249093 -19.72308142261825 4.550000000000005
    vertex 20.106905668773326 -19.755492465296616 4.550000000000005
  endloop
endfacet
facet normal 6.782410353373943e-17 -7.005836927904442e-17 -1.0
  outer loop
    vertex 20.035372973249093 -40.26059026930905 4.550000000000007
    vertex 20.106905668773326 -19.755492465296616 4.550000000000005
    vertex 20.106905668773297 -40.228179226630694 4.550000000000007
  endloop
endfacet
facet normal 6.782410353373943e-17 -7.005836927904442e-17 -1.0
  outer loop
    vertex 20.106905668773297 -40.228179226630694 4.550000000000007
    vertex 20.106905668773326 -19.755492465296616 4.550000000000005
    vertex 20.17616542369266 -40.19115911635307 4.550000000000007
  endloop
endfacet
facet normal 6.782410353373943e-17 -7.005836927904442e-17 -1.0
  outer loop
    vertex 20.17616542369266 -40.19115911635307 4.550000000000007
    vertex 20.106905668773326 -19.755492465296616 4.550000000000005
    vertex 20.176165423692638 -19.79251257557421 4.550000000000005
  endloop
endfacet
facet normal 6.782410353373943e-17 -7.005836927904442e-17 -1.0
  outer loop
    vertex 20.17616542369266 -40.19115911635307 4.550000000000007
    vertex 20.176165423692638 -19.79251257557421 4.550000000000005
    vertex 20.242855657103622 -19.833983227655434 4.550000000000005
  endloop
endfacet
facet normal 6.782410353373943e-17 -7.005836927904442e-17 -1.0
  outer loop
    vertex 20.17616542369266 -40.19115911635307 4.550000000000007
    vertex 20.242855657103622 -19.833983227655434 4.550000000000005
    vertex 20.24285565710366 -40.149688464271826 4.550000000000007
  endloop
endfacet
facet normal 6.782410353373943e-17 -7.005836927904442e-17 -1.0
  outer loop
    vertex 20.24285565710366 -40.149688464271826 4.550000000000007
    vertex 20.242855657103622 -19.833983227655434 4.550000000000005
    vertex 20.306690791188373 -19.879726837841424 4.550000000000005
  endloop
endfacet
facet normal 6.782410353373943e-17 -7.005836927904442e-17 -1.0
  outer loop
    vertex 20.24285565710366 -40.149688464271826 4.550000000000007
    vertex 20.306690791188373 -19.879726837841424 4.550000000000005
    vertex 20.306690791188363 -40.103944854085874 4.550000000000007
  endloop
endfacet
facet normal 6.782410353373943e-17 -7.005836927904442e-17 -1.0
  outer loop
    vertex 20.306690791188363 -40.103944854085874 4.550000000000007
    vertex 20.306690791188373 -19.879726837841424 4.550000000000005
    vertex 20.367397474102447 -40.054124166956726 4.550000000000007
  endloop
endfacet
facet normal 6.782410353373943e-17 -7.005836927904442e-17 -1.0
  outer loop
    vertex 20.367397474102447 -40.054124166956726 4.550000000000007
    vertex 20.306690791188373 -19.879726837841424 4.550000000000005
    vertex 20.36739747410247 -19.92954752497058 4.550000000000005
  endloop
endfacet
facet normal 6.782410353373943e-17 -7.005836927904442e-17 -1.0
  outer loop
    vertex 20.367397474102447 -40.054124166956726 4.550000000000007
    vertex 20.36739747410247 -19.92954752497058 4.550000000000005
    vertex 20.424715750509847 -40.000439742715244 4.550000000000007
  endloop
endfacet
facet normal 6.782410353373943e-17 -7.005836927904442e-17 -1.0
  outer loop
    vertex 20.424715750509847 -40.000439742715244 4.550000000000007
    vertex 20.36739747410247 -19.92954752497058 4.550000000000005
    vertex 20.424715750509833 -19.98323194921202 4.550000000000005
  endloop
endfacet
facet normal 6.782410353373943e-17 -7.005836927904442e-17 -1.0
  outer loop
    vertex 20.424715750509847 -40.000439742715244 4.550000000000007
    vertex 20.424715750509833 -19.98323194921202 4.550000000000005
    vertex 20.47840017475134 -20.040550225619455 4.550000000000005
  endloop
endfacet
facet normal 6.782410353373943e-17 -7.005836927904442e-17 -1.0
  outer loop
    vertex 20.424715750509847 -40.000439742715244 4.550000000000007
    vertex 20.47840017475134 -20.040550225619455 4.550000000000005
    vertex 20.478400174751364 -39.94312146630781 4.550000000000007
  endloop
endfacet
facet normal 6.782410353373943e-17 -7.005836927904442e-17 -1.0
  outer loop
    vertex 20.478400174751364 -39.94312146630781 4.550000000000007
    vertex 20.47840017475134 -20.040550225619455 4.550000000000005
    vertex 20.52822086188054 -20.101256908533607 4.550000000000005
  endloop
endfacet
facet normal 6.782410353373943e-17 -7.005836927904442e-17 -1.0
  outer loop
    vertex 20.478400174751364 -39.94312146630781 4.550000000000007
    vertex 20.52822086188054 -20.101256908533607 4.550000000000005
    vertex 20.528220861880524 -39.88241478339372 4.550000000000007
  endloop
endfacet
facet normal 6.782410353373943e-17 -7.005836927904442e-17 -1.0
  outer loop
    vertex 20.528220861880524 -39.88241478339372 4.550000000000007
    vertex 20.52822086188054 -20.101256908533607 4.550000000000005
    vertex 20.573964472066457 -39.81857964930903 4.550000000000007
  endloop
endfacet
facet normal 6.782410353373943e-17 -7.005836927904442e-17 -1.0
  outer loop
    vertex 20.573964472066457 -39.81857964930903 4.550000000000007
    vertex 20.52822086188054 -20.101256908533607 4.550000000000005
    vertex 20.573964472066457 -20.165092042618255 4.550000000000005
  endloop
endfacet
facet normal 6.782410353373943e-17 -7.005836927904442e-17 -1.0
  outer loop
    vertex 20.573964472066457 -39.81857964930903 4.550000000000007
    vertex 20.573964472066457 -20.165092042618255 4.550000000000005
    vertex 20.615435124147723 -20.231782276029303 4.550000000000005
  endloop
endfacet
facet normal 6.782410353373943e-17 -7.005836927904442e-17 -1.0
  outer loop
    vertex 20.573964472066457 -39.81857964930903 4.550000000000007
    vertex 20.615435124147723 -20.231782276029303 4.550000000000005
    vertex 20.615435124147712 -39.751889415898 4.550000000000007
  endloop
endfacet
facet normal 6.782410353373943e-17 -7.005836927904442e-17 -1.0
  outer loop
    vertex 20.615435124147712 -39.751889415898 4.550000000000007
    vertex 20.615435124147723 -20.231782276029303 4.550000000000005
    vertex 20.652455234425332 -39.68262966097865 4.550000000000007
  endloop
endfacet
facet normal 6.782410353373943e-17 -7.005836927904442e-17 -1.0
  outer loop
    vertex 20.652455234425332 -39.68262966097865 4.550000000000007
    vertex 20.615435124147723 -20.231782276029303 4.550000000000005
    vertex 20.65245523442532 -20.30104203094862 4.550000000000005
  endloop
endfacet
facet normal 6.782410353373943e-17 -7.005836927904442e-17 -1.0
  outer loop
    vertex 20.652455234425332 -39.68262966097865 4.550000000000007
    vertex 20.65245523442532 -20.30104203094862 4.550000000000005
    vertex 20.684866277103666 -20.372574726472788 4.550000000000005
  endloop
endfacet
facet normal 6.782410353373943e-17 -7.005836927904442e-17 -1.0
  outer loop
    vertex 20.652455234425332 -39.68262966097865 4.550000000000007
    vertex 20.684866277103666 -20.372574726472788 4.550000000000005
    vertex 20.684866277103673 -39.61109696545449 4.550000000000007
  endloop
endfacet
facet normal 6.782410353373943e-17 -7.005836927904442e-17 -1.0
  outer loop
    vertex 20.684866277103673 -39.61109696545449 4.550000000000007
    vertex 20.684866277103666 -20.372574726472788 4.550000000000005
    vertex 20.712529463122195 -20.446074048617714 4.550000000000005
  endloop
endfacet
facet normal 6.782410353373943e-17 -7.005836927904442e-17 -1.0
  outer loop
    vertex 20.684866277103673 -39.61109696545449 4.550000000000007
    vertex 20.712529463122195 -20.446074048617714 4.550000000000005
    vertex 20.71252946312221 -39.53759764330956 4.550000000000007
  endloop
endfacet
facet normal 6.782410353373943e-17 -7.005836927904442e-17 -1.0
  outer loop
    vertex 20.71252946312221 -39.53759764330956 4.550000000000007
    vertex 20.712529463122195 -20.446074048617714 4.550000000000005
    vertex 20.73532633447142 -20.52122526200212 4.550000000000005
  endloop
endfacet
facet normal 6.782410353373943e-17 -7.005836927904442e-17 -1.0
  outer loop
    vertex 20.71252946312221 -39.53759764330956 4.550000000000007
    vertex 20.73532633447142 -20.52122526200212 4.550000000000005
    vertex 20.73532633447142 -39.46244642992518 4.550000000000007
  endloop
endfacet
facet normal 6.782410353373943e-17 -7.005836927904442e-17 -1.0
  outer loop
    vertex 20.73532633447142 -39.46244642992518 4.550000000000007
    vertex 20.73532633447142 -20.52122526200212 4.550000000000005
    vertex 20.753159271448375 -20.597706557592787 4.550000000000005
  endloop
endfacet
facet normal 6.782410353373943e-17 -7.005836927904442e-17 -1.0
  outer loop
    vertex 20.73532633447142 -39.46244642992518 4.550000000000007
    vertex 20.753159271448375 -20.597706557592787 4.550000000000005
    vertex 20.75315927144838 -39.385965134334484 4.550000000000007
  endloop
endfacet
facet normal 6.782410353373943e-17 -7.005836927904442e-17 -1.0
  outer loop
    vertex 20.75315927144838 -39.385965134334484 4.550000000000007
    vertex 20.753159271448375 -20.597706557592787 4.550000000000005
    vertex 20.765951910679167 -20.675190430740486 4.550000000000005
  endloop
endfacet
facet normal 6.782410353373943e-17 -7.005836927904442e-17 -1.0
  outer loop
    vertex 20.75315927144838 -39.385965134334484 4.550000000000007
    vertex 20.765951910679167 -20.675190430740486 4.550000000000005
    vertex 20.765951910679167 -39.3084812611868 4.550000000000007
  endloop
endfacet
facet normal 6.782410353373943e-17 -7.005836927904442e-17 -1.0
  outer loop
    vertex 20.765951910679167 -39.3084812611868 4.550000000000007
    vertex 20.765951910679167 -20.675190430740486 4.550000000000005
    vertex 20.773649472118674 -20.75334508360475 4.550000000000005
  endloop
endfacet
facet normal 6.782410353373943e-17 -7.005836927904442e-17 -1.0
  outer loop
    vertex 20.765951910679167 -39.3084812611868 4.550000000000007
    vertex 20.773649472118674 -20.75334508360475 4.550000000000005
    vertex 20.773649472118674 -39.230326608322535 4.550000000000007
  endloop
endfacet
facet normal 6.782410353373943e-17 -7.005836927904442e-17 -1.0
  outer loop
    vertex 20.773649472118674 -39.230326608322535 4.550000000000007
    vertex 20.773649472118674 -20.75334508360475 4.550000000000005
    vertex 20.785772127078996 -21.12365388489502 4.550000000000005
  endloop
endfacet
facet normal 6.782410353373943e-17 -7.005836927904442e-17 -1.0
  outer loop
    vertex 20.773649472118674 -39.230326608322535 4.550000000000007
    vertex 20.785772127078996 -21.12365388489502 4.550000000000005
    vertex 20.785772127079042 -38.8600178070313 4.550000000000007
  endloop
endfacet
facet normal 6.782410353373943e-17 -7.005836927904442e-17 -1.0
  outer loop
    vertex 20.785772127079042 -38.8600178070313 4.550000000000007
    vertex 20.785772127078996 -21.12365388489502 4.550000000000005
    vertex 22.276111853758326 -21.123653884895013 4.550000000000005
  endloop
endfacet
facet normal 6.782410353373943e-17 -7.005836927904442e-17 -1.0
  outer loop
    vertex 20.785772127079042 -38.8600178070313 4.550000000000007
    vertex 22.276111853758326 -21.123653884895013 4.550000000000005
    vertex 22.27611185375828 -38.8600178070313 4.550000000000007
  endloop
endfacet
facet normal 2.6937835094521393e-16 1.0 -3.609557097661318e-16
  outer loop
    vertex 5.196111853758263 -36.43228996276062 4.5500000000000105
    vertex 10.00611185375829 -36.43228996276062 6.550000000000005
    vertex 10.006111853758284 -36.43228996276062 4.550000000000004
  endloop
endfacet
facet normal 2.6937835094521393e-16 1.0 -3.609557097661318e-16
  outer loop
    vertex 10.00611185375829 -36.43228996276062 6.550000000000005
    vertex 5.196111853758263 -36.43228996276062 4.5500000000000105
    vertex 5.196111853758263 -36.43228996276062 6.550000000000006
  endloop
endfacet
facet normal 0.6835923020228859 0.7298640726978219 -4.4868353765106834e-18
  outer loop
    vertex 20.36739747410247 -19.92954752497058 6.550000000000006
    vertex 20.424715750509833 -19.98323194921202 4.550000000000005
    vertex 20.36739747410247 -19.92954752497058 4.550000000000005
  endloop
endfacet
facet normal 0.6835923020228859 0.7298640726978219 -4.4868353765106834e-18
  outer loop
    vertex 20.424715750509833 -19.98323194921202 4.550000000000005
    vertex 20.36739747410247 -19.92954752497058 6.550000000000006
    vertex 20.424715750509833 -19.98323194921202 6.550000000000006
  endloop
endfacet
facet normal -0.9999999995523492 0.0 -2.9921595167670786e-05
  outer loop
    vertex -11.283888146241733 -19.63183584596364 4.550000000000004
    vertex -11.283888146241733 -40.351835845963656 4.550000000000004
    vertex -11.283918067836915 -34.19465235419629 5.550000000000003
  endloop
endfacet
facet normal 0.849202181526636 0.5280678506502763 2.038353462382008e-17
  outer loop
    vertex 20.573964472066457 -20.165092042618255 4.550000000000005
    vertex 20.615435124147723 -20.231782276029303 6.550000000000006
    vertex 20.615435124147723 -20.231782276029303 4.550000000000005
  endloop
endfacet
facet normal 0.849202181526636 0.5280678506502763 2.038353462382008e-17
  outer loop
    vertex 20.615435124147723 -20.231782276029303 6.550000000000006
    vertex 20.573964472066457 -20.165092042618255 4.550000000000005
    vertex 20.573964472066457 -20.165092042618255 6.550000000000006
  endloop
endfacet
facet normal -1.0 0.0 1.772844961758311e-15
  outer loop
    vertex 10.00611185375829 -34.82228996276062 6.550000000000005
    vertex 10.006111853758284 -36.43228996276062 4.550000000000004
    vertex 10.00611185375829 -36.43228996276062 6.550000000000005
  endloop
endfacet
facet normal -1.0 0.0 1.772844961758311e-15
  outer loop
    vertex 10.006111853758284 -36.43228996276062 4.550000000000004
    vertex 10.00611185375829 -34.82228996276062 6.550000000000005
    vertex 10.006111853758284 -34.82228996276062 4.550000000000004
  endloop
endfacet
facet normal -0.9999999999882137 -4.8551819050966384e-06 3.737729201928216e-21
  outer loop
    vertex -11.283888146241733 -19.63183584596364 6.550000000000003
    vertex -11.283858224646552 -25.794652351211955 5.550000000000003
    vertex -11.283858224646552 -25.794652351211955 6.550000000000003
  endloop
endfacet
facet normal 0.729864072697829 0.6835923020228785 1.76883733787581e-18
  outer loop
    vertex 20.424715750509833 -19.98323194921202 4.550000000000005
    vertex 20.47840017475134 -20.040550225619455 6.550000000000006
    vertex 20.47840017475134 -20.040550225619455 4.550000000000005
  endloop
endfacet
facet normal 0.729864072697829 0.6835923020228785 1.76883733787581e-18
  outer loop
    vertex 20.47840017475134 -20.040550225619455 6.550000000000006
    vertex 20.424715750509833 -19.98323194921202 4.550000000000005
    vertex 20.424715750509833 -19.98323194921202 6.550000000000006
  endloop
endfacet
facet normal 1.0 0.0 -1.569372651157093e-15
  outer loop
    vertex 5.196111853758263 -34.822289962760614 4.5500000000000105
    vertex 5.196111853758263 -36.43228996276062 6.550000000000006
    vertex 5.196111853758263 -36.43228996276062 4.5500000000000105
  endloop
endfacet
facet normal 1.0 0.0 -1.569372651157093e-15
  outer loop
    vertex 5.196111853758263 -36.43228996276062 6.550000000000006
    vertex 5.196111853758263 -34.822289962760614 4.5500000000000105
    vertex 5.196111853758263 -34.82228996276062 6.550000000000006
  endloop
endfacet
facet normal -2.6937835094521383e-16 -1.0 3.6095570976613177e-16
  outer loop
    vertex 10.00611185375829 -34.82228996276062 6.550000000000005
    vertex 5.196111853758263 -34.822289962760614 4.5500000000000105
    vertex 10.006111853758284 -34.82228996276062 4.550000000000004
  endloop
endfacet
facet normal -2.6937835094521383e-16 -1.0 3.6095570976613177e-16
  outer loop
    vertex 5.196111853758263 -34.822289962760614 4.5500000000000105
    vertex 10.00611185375829 -34.82228996276062 6.550000000000005
    vertex 5.196111853758263 -34.82228996276062 6.550000000000006
  endloop
endfacet
facet normal -0.9999999999881921 -4.859623758284843e-06 1.872285696038223e-21
  outer loop
    vertex -11.283918067836915 -34.19465235419629 6.550000000000003
    vertex -11.283888146241733 -40.351835845963656 4.550000000000004
    vertex -11.283888146241733 -40.351835845963656 6.550000000000003
  endloop
endfacet
facet normal -0.9999999999881921 -4.859623758284839e-06 0.0
  outer loop
    vertex -11.283918067836915 -34.19465235419629 5.550000000000003
    vertex -11.283888146241733 -40.351835845963656 4.550000000000004
    vertex -11.283918067836915 -34.19465235419629 6.550000000000003
  endloop
endfacet
facet normal -0.999999999744545 4.965147157603427e-06 2.2051246681375027e-05
  outer loop
    vertex -11.283858224646552 -25.794652351211955 6.550000000000003
    vertex -11.283918067836915 -34.19465235419629 5.550000000000003
    vertex -11.283918067836915 -34.19465235419629 6.550000000000003
  endloop
endfacet
facet normal -0.999999999744545 4.965147157603427e-06 2.2051246681375027e-05
  outer loop
    vertex -11.283918067836915 -34.19465235419629 5.550000000000003
    vertex -11.283858224646552 -25.794652351211955 6.550000000000003
    vertex -11.283858224646552 -25.794652351211955 5.550000000000003
  endloop
endfacet
facet normal -0.999999999744545 4.965147157603427e-06 2.2051246681375027e-05
  outer loop
    vertex -11.283918067836915 -34.19465235419629 5.550000000000003
    vertex -11.283858224646552 -25.794652351211955 5.550000000000003
    vertex -11.283888146241733 -19.63183584596364 4.550000000000004
  endloop
endfacet
facet normal -0.9999999999882137 -4.855181905096639e-06 -1.0169353067656464e-22
  outer loop
    vertex -11.283888146241733 -19.63183584596364 4.550000000000004
    vertex -11.283858224646552 -25.794652351211955 5.550000000000003
    vertex -11.283888146241733 -19.63183584596364 6.550000000000003
  endloop
endfacet
facet normal 0.8492021815266352 -0.5280678506502774 9.279066406047337e-17
  outer loop
    vertex 20.615435124147712 -39.751889415898 4.550000000000007
    vertex 20.573964472066457 -39.81857964930903 6.550000000000006
    vertex 20.573964472066457 -39.81857964930903 4.550000000000007
  endloop
endfacet
facet normal 0.8492021815266352 -0.5280678506502774 9.279066406047337e-17
  outer loop
    vertex 20.573964472066457 -39.81857964930903 6.550000000000006
    vertex 20.615435124147712 -39.751889415898 4.550000000000007
    vertex 20.615435124147712 -39.751889415898 6.550000000000006
  endloop
endfacet
facet normal 0.9866433320849085 0.16289547339441043 5.4577696253336314e-17
  outer loop
    vertex 20.753159271448375 -20.597706557592787 4.550000000000005
    vertex 20.765951910679167 -20.675190430740486 6.550000000000006
    vertex 20.765951910679167 -20.675190430740486 4.550000000000005
  endloop
endfacet
facet normal 0.9866433320849085 0.16289547339441043 5.4577696253336314e-17
  outer loop
    vertex 20.765951910679167 -20.675190430740486 6.550000000000006
    vertex 20.753159271448375 -20.597706557592787 4.550000000000005
    vertex 20.753159271448375 -20.597706557592787 6.550000000000006
  endloop
endfacet
facet normal 0.7298640726978095 -0.6835923020228992 9.55010276871246e-17
  outer loop
    vertex 20.478400174751364 -39.94312146630781 4.550000000000007
    vertex 20.424715750509847 -40.000439742715244 6.550000000000006
    vertex 20.424715750509847 -40.000439742715244 4.550000000000007
  endloop
endfacet
facet normal 0.7298640726978095 -0.6835923020228992 9.55010276871246e-17
  outer loop
    vertex 20.424715750509847 -40.000439742715244 6.550000000000006
    vertex 20.478400174751364 -39.94312146630781 4.550000000000007
    vertex 20.478400174751364 -39.94312146630781 6.550000000000006
  endloop
endfacet
facet normal 0.4127070298043767 -0.9108638249211841 8.994848237626829e-17
  outer loop
    vertex 20.106905668773297 -40.228179226630694 6.550000000000006
    vertex 20.035372973249093 -40.26059026930905 4.550000000000007
    vertex 20.106905668773297 -40.228179226630694 4.550000000000007
  endloop
endfacet
facet normal 0.4127070298043767 -0.9108638249211841 8.994848237626829e-17
  outer loop
    vertex 20.035372973249093 -40.26059026930905 4.550000000000007
    vertex 20.106905668773297 -40.228179226630694 6.550000000000006
    vertex 20.035372973249093 -40.26059026930905 6.550000000000006
  endloop
endfacet
facet normal 0.9569403357322259 0.2902846772544066 4.3864800424908554e-17
  outer loop
    vertex 20.712529463122195 -20.446074048617714 4.550000000000005
    vertex 20.73532633447142 -20.52122526200212 6.550000000000006
    vertex 20.73532633447142 -20.52122526200212 4.550000000000005
  endloop
endfacet
facet normal 0.9569403357322259 0.2902846772544066 4.3864800424908554e-17
  outer loop
    vertex 20.73532633447142 -20.52122526200212 6.550000000000006
    vertex 20.712529463122195 -20.446074048617714 4.550000000000005
    vertex 20.712529463122195 -20.446074048617714 6.550000000000006
  endloop
endfacet
facet normal 0.9994645874763666 0.03271908282175061 6.435675256705197e-17
  outer loop
    vertex 20.773649472118674 -20.75334508360475 4.550000000000005
    vertex 20.785772127078996 -21.12365388489502 6.550000000000006
    vertex 20.785772127078996 -21.12365388489502 4.550000000000005
  endloop
endfacet
facet normal 0.9994645874763666 0.03271908282175061 6.435675256705197e-17
  outer loop
    vertex 20.785772127078996 -21.12365388489502 6.550000000000006
    vertex 20.773649472118674 -20.75334508360475 4.550000000000005
    vertex 20.773649472118674 -20.75334508360475 6.550000000000006
  endloop
endfacet
facet normal 0.9359059267573083 -0.35225004792127984 8.651440725158905e-17
  outer loop
    vertex 20.71252946312221 -39.53759764330956 4.550000000000007
    vertex 20.684866277103673 -39.61109696545449 6.550000000000006
    vertex 20.684866277103673 -39.61109696545449 4.550000000000007
  endloop
endfacet
facet normal 0.9359059267573083 -0.35225004792127984 8.651440725158905e-17
  outer loop
    vertex 20.684866277103673 -39.61109696545449 6.550000000000006
    vertex 20.71252946312221 -39.53759764330956 4.550000000000007
    vertex 20.71252946312221 -39.53759764330956 6.550000000000006
  endloop
endfacet
facet normal 0.2270762630343712 -0.9738769792773341 8.189895464115759e-17
  outer loop
    vertex 19.88672243771983 -40.31105032667678 6.550000000000006
    vertex 19.810241142129133 -40.328883263653736 4.550000000000007
    vertex 19.88672243771983 -40.31105032667678 4.550000000000007
  endloop
endfacet
facet normal 0.2270762630343712 -0.9738769792773341 8.189895464115759e-17
  outer loop
    vertex 19.810241142129133 -40.328883263653736 4.550000000000007
    vertex 19.88672243771983 -40.31105032667678 6.550000000000006
    vertex 19.810241142129133 -40.328883263653736 6.550000000000006
  endloop
endfacet
facet normal 0.5280678506504222 -0.8492021815265451 9.340818752782334e-17
  outer loop
    vertex 20.24285565710366 -40.149688464271826 6.550000000000006
    vertex 20.17616542369266 -40.19115911635307 4.550000000000007
    vertex 20.24285565710366 -40.149688464271826 4.550000000000007
  endloop
endfacet
facet normal 0.5280678506504222 -0.8492021815265451 9.340818752782334e-17
  outer loop
    vertex 20.17616542369266 -40.19115911635307 4.550000000000007
    vertex 20.24285565710366 -40.149688464271826 6.550000000000006
    vertex 20.17616542369266 -40.19115911635307 6.550000000000006
  endloop
endfacet
facet normal 0.8128466845916991 -0.5824776968676851 9.409835361950067e-17
  outer loop
    vertex 20.573964472066457 -39.81857964930903 4.550000000000007
    vertex 20.528220861880524 -39.88241478339372 6.550000000000006
    vertex 20.528220861880524 -39.88241478339372 4.550000000000007
  endloop
endfacet
facet normal 0.8128466845916991 -0.5824776968676851 9.409835361950067e-17
  outer loop
    vertex 20.528220861880524 -39.88241478339372 6.550000000000006
    vertex 20.573964472066457 -39.81857964930903 4.550000000000007
    vertex 20.573964472066457 -39.81857964930903 6.550000000000006
  endloop
endfacet
facet normal -1.937575457753584e-15 1.0 -6.85585473036177e-17
  outer loop
    vertex 20.785772127078996 -21.12365388489502 6.550000000000006
    vertex 22.276111853758326 -21.123653884895013 4.550000000000005
    vertex 20.785772127078996 -21.12365388489502 4.550000000000005
  endloop
endfacet
facet normal -1.937575457753584e-15 1.0 -6.85585473036177e-17
  outer loop
    vertex 22.276111853758326 -21.123653884895013 4.550000000000005
    vertex 20.785772127078996 -21.12365388489502 6.550000000000006
    vertex 22.276111853758326 -21.123653884895013 6.550000000000006
  endloop
endfacet
facet normal 0.9951847266721778 -0.09801714032975388 7.303464700130521e-17
  outer loop
    vertex 20.773649472118674 -39.230326608322535 4.550000000000007
    vertex 20.765951910679167 -39.3084812611868 6.550000000000006
    vertex 20.765951910679167 -39.3084812611868 4.550000000000007
  endloop
endfacet
facet normal 0.9951847266721778 -0.09801714032975388 7.303464700130521e-17
  outer loop
    vertex 20.765951910679167 -39.3084812611868 6.550000000000006
    vertex 20.773649472118674 -39.230326608322535 4.550000000000007
    vertex 20.773649472118674 -39.230326608322535 6.550000000000006
  endloop
endfacet
facet normal 0.9994645874763655 -0.03271908282178201 6.8843098141786e-17
  outer loop
    vertex 20.785772127079042 -38.8600178070313 4.550000000000007
    vertex 20.773649472118674 -39.230326608322535 6.550000000000006
    vertex 20.773649472118674 -39.230326608322535 4.550000000000007
  endloop
endfacet
facet normal 0.9994645874763655 -0.03271908282178201 6.8843098141786e-17
  outer loop
    vertex 20.773649472118674 -39.230326608322535 6.550000000000006
    vertex 20.785772127079042 -38.8600178070313 4.550000000000007
    vertex 20.785772127079042 -38.8600178070313 6.550000000000006
  endloop
endfacet
facet normal -9.040331222489114e-17 2.4523968818046007e-23 1.0
  outer loop
    vertex 22.27611185375828 -38.8600178070313 6.550000000000006
    vertex 22.27608193216312 -34.19130512506546 6.550000000000006
    vertex 20.785772127079042 -38.8600178070313 6.550000000000006
  endloop
endfacet
facet normal -9.040331222489114e-17 2.4523968818046007e-23 1.0
  outer loop
    vertex -11.283888146241733 -40.351835845963656 6.550000000000003
    vertex -11.283858224646552 -25.794652351211955 6.550000000000003
    vertex -11.283918067836915 -34.19465235419629 6.550000000000003
  endloop
endfacet
facet normal -9.040331222489114e-17 2.4523968818046007e-23 1.0
  outer loop
    vertex -11.283858224646552 -25.794652351211955 6.550000000000003
    vertex -11.283888146241733 -40.351835845963656 6.550000000000003
    vertex 5.196111853758263 -36.43228996276062 6.550000000000006
  endloop
endfacet
facet normal -9.040331222489114e-17 2.4523968818046007e-23 1.0
  outer loop
    vertex 5.196111853758263 -36.43228996276062 6.550000000000006
    vertex -11.283888146241733 -40.351835845963656 6.550000000000003
    vertex 19.579384638186532 -40.3518358459636 6.550000000000006
  endloop
endfacet
facet normal -9.040331222489114e-17 2.4523968818046007e-23 1.0
  outer loop
    vertex 5.196111853758263 -36.43228996276062 6.550000000000006
    vertex 19.579384638186532 -40.3518358459636 6.550000000000006
    vertex 10.00611185375829 -36.43228996276062 6.550000000000005
  endloop
endfacet
facet normal -9.040331222489114e-17 2.4523968818046007e-23 1.0
  outer loop
    vertex 10.00611185375829 -36.43228996276062 6.550000000000005
    vertex 19.579384638186532 -40.3518358459636 6.550000000000006
    vertex 10.00611185375829 -34.82228996276062 6.550000000000005
  endloop
endfacet
facet normal -9.040331222489114e-17 2.4523968818046007e-23 1.0
  outer loop
    vertex 10.00611185375829 -34.82228996276062 6.550000000000005
    vertex 19.579384638186532 -40.3518358459636 6.550000000000006
    vertex 19.579384638185317 -19.63183584596364 6.550000000000006
  endloop
endfacet
facet normal -9.040331222489114e-17 2.4523968818046007e-23 1.0
  outer loop
    vertex 19.579384638185317 -19.63183584596364 6.550000000000006
    vertex 19.579384638186532 -40.3518358459636 6.550000000000006
    vertex 19.65460261611711 -19.63429822760325 6.550000000000006
  endloop
endfacet
facet normal -9.040331222489114e-17 2.4523968818046007e-23 1.0
  outer loop
    vertex 19.65460261611711 -19.63429822760325 6.550000000000006
    vertex 19.579384638186532 -40.3518358459636 6.550000000000006
    vertex 19.65460261611715 -40.34937346432404 6.550000000000006
  endloop
endfacet
facet normal -9.040331222489114e-17 2.4523968818046007e-23 1.0
  outer loop
    vertex 19.65460261611711 -19.63429822760325 6.550000000000006
    vertex 19.65460261611715 -40.34937346432404 6.550000000000006
    vertex 19.73275726898145 -19.64199578904275 6.550000000000006
  endloop
endfacet
facet normal -9.040331222489114e-17 2.4523968818046007e-23 1.0
  outer loop
    vertex 19.73275726898145 -19.64199578904275 6.550000000000006
    vertex 19.65460261611715 -40.34937346432404 6.550000000000006
    vertex 19.73275726898143 -40.34167590288454 6.550000000000006
  endloop
endfacet
facet normal -9.040331222489114e-17 2.4523968818046007e-23 1.0
  outer loop
    vertex 19.73275726898145 -19.64199578904275 6.550000000000006
    vertex 19.73275726898143 -40.34167590288454 6.550000000000006
    vertex 19.810241142129133 -40.328883263653736 6.550000000000006
  endloop
endfacet
facet normal -9.040331222489114e-17 2.4523968818046007e-23 1.0
  outer loop
    vertex 19.73275726898145 -19.64199578904275 6.550000000000006
    vertex 19.810241142129133 -40.328883263653736 6.550000000000006
    vertex 19.81024114212911 -19.654788428273548 6.550000000000006
  endloop
endfacet
facet normal -9.040331222489114e-17 2.4523968818046007e-23 1.0
  outer loop
    vertex 19.81024114212911 -19.654788428273548 6.550000000000006
    vertex 19.810241142129133 -40.328883263653736 6.550000000000006
    vertex 19.88672243771984 -19.67262136525051 6.550000000000006
  endloop
endfacet
facet normal -9.040331222489114e-17 2.4523968818046007e-23 1.0
  outer loop
    vertex 19.88672243771984 -19.67262136525051 6.550000000000006
    vertex 19.810241142129133 -40.328883263653736 6.550000000000006
    vertex 19.88672243771983 -40.31105032667678 6.550000000000006
  endloop
endfacet
facet normal -9.040331222489114e-17 2.4523968818046007e-23 1.0
  outer loop
    vertex 19.88672243771984 -19.67262136525051 6.550000000000006
    vertex 19.88672243771983 -40.31105032667678 6.550000000000006
    vertex 19.961873651104167 -40.28825345532758 6.550000000000006
  endloop
endfacet
facet normal -9.040331222489114e-17 2.4523968818046007e-23 1.0
  outer loop
    vertex 19.88672243771984 -19.67262136525051 6.550000000000006
    vertex 19.961873651104167 -40.28825345532758 6.550000000000006
    vertex 19.961873651104202 -19.695418236599718 6.550000000000006
  endloop
endfacet
facet normal -9.040331222489114e-17 2.4523968818046007e-23 1.0
  outer loop
    vertex 19.961873651104202 -19.695418236599718 6.550000000000006
    vertex 19.961873651104167 -40.28825345532758 6.550000000000006
    vertex 20.035372973249093 -40.26059026930905 6.550000000000006
  endloop
endfacet
facet normal -9.040331222489114e-17 2.4523968818046007e-23 1.0
  outer loop
    vertex 19.961873651104202 -19.695418236599718 6.550000000000006
    vertex 20.035372973249093 -40.26059026930905 6.550000000000006
    vertex 20.035372973249093 -19.72308142261825 6.550000000000006
  endloop
endfacet
facet normal -9.040331222489114e-17 2.4523968818046007e-23 1.0
  outer loop
    vertex 20.035372973249093 -19.72308142261825 6.550000000000006
    vertex 20.035372973249093 -40.26059026930905 6.550000000000006
    vertex 20.106905668773297 -40.228179226630694 6.550000000000006
  endloop
endfacet
facet normal -9.040331222489114e-17 2.4523968818046007e-23 1.0
  outer loop
    vertex 20.035372973249093 -19.72308142261825 6.550000000000006
    vertex 20.106905668773297 -40.228179226630694 6.550000000000006
    vertex 20.106905668773326 -19.755492465296616 6.550000000000006
  endloop
endfacet
facet normal -9.040331222489114e-17 2.4523968818046007e-23 1.0
  outer loop
    vertex 20.106905668773326 -19.755492465296616 6.550000000000006
    vertex 20.106905668773297 -40.228179226630694 6.550000000000006
    vertex 20.17616542369266 -40.19115911635307 6.550000000000006
  endloop
endfacet
facet normal -9.040331222489114e-17 2.4523968818046007e-23 1.0
  outer loop
    vertex 20.106905668773326 -19.755492465296616 6.550000000000006
    vertex 20.17616542369266 -40.19115911635307 6.550000000000006
    vertex 20.176165423692638 -19.79251257557421 6.550000000000006
  endloop
endfacet
facet normal -9.040331222489114e-17 2.4523968818046007e-23 1.0
  outer loop
    vertex 20.176165423692638 -19.79251257557421 6.550000000000006
    vertex 20.17616542369266 -40.19115911635307 6.550000000000006
    vertex 20.242855657103622 -19.833983227655434 6.550000000000006
  endloop
endfacet
facet normal -9.040331222489114e-17 2.4523968818046007e-23 1.0
  outer loop
    vertex 20.242855657103622 -19.833983227655434 6.550000000000006
    vertex 20.17616542369266 -40.19115911635307 6.550000000000006
    vertex 20.24285565710366 -40.149688464271826 6.550000000000006
  endloop
endfacet
facet normal -9.040331222489114e-17 2.4523968818046007e-23 1.0
  outer loop
    vertex 20.242855657103622 -19.833983227655434 6.550000000000006
    vertex 20.24285565710366 -40.149688464271826 6.550000000000006
    vertex 20.306690791188373 -19.879726837841424 6.550000000000006
  endloop
endfacet
facet normal -9.040331222489114e-17 2.4523968818046007e-23 1.0
  outer loop
    vertex 20.306690791188373 -19.879726837841424 6.550000000000006
    vertex 20.24285565710366 -40.149688464271826 6.550000000000006
    vertex 20.306690791188363 -40.103944854085874 6.550000000000006
  endloop
endfacet
facet normal -9.040331222489114e-17 2.4523968818046007e-23 1.0
  outer loop
    vertex 20.306690791188373 -19.879726837841424 6.550000000000006
    vertex 20.306690791188363 -40.103944854085874 6.550000000000006
    vertex 20.367397474102447 -40.054124166956726 6.550000000000006
  endloop
endfacet
facet normal -9.040331222489114e-17 2.4523968818046007e-23 1.0
  outer loop
    vertex 20.306690791188373 -19.879726837841424 6.550000000000006
    vertex 20.367397474102447 -40.054124166956726 6.550000000000006
    vertex 20.36739747410247 -19.92954752497058 6.550000000000006
  endloop
endfacet
facet normal -9.040331222489114e-17 2.4523968818046007e-23 1.0
  outer loop
    vertex 20.36739747410247 -19.92954752497058 6.550000000000006
    vertex 20.367397474102447 -40.054124166956726 6.550000000000006
    vertex 20.424715750509847 -40.000439742715244 6.550000000000006
  endloop
endfacet
facet normal -9.040331222489114e-17 2.4523968818046007e-23 1.0
  outer loop
    vertex 20.36739747410247 -19.92954752497058 6.550000000000006
    vertex 20.424715750509847 -40.000439742715244 6.550000000000006
    vertex 20.424715750509833 -19.98323194921202 6.550000000000006
  endloop
endfacet
facet normal -9.040331222489114e-17 2.4523968818046007e-23 1.0
  outer loop
    vertex 20.424715750509833 -19.98323194921202 6.550000000000006
    vertex 20.424715750509847 -40.000439742715244 6.550000000000006
    vertex 20.47840017475134 -20.040550225619455 6.550000000000006
  endloop
endfacet
facet normal -9.040331222489114e-17 2.4523968818046007e-23 1.0
  outer loop
    vertex 20.47840017475134 -20.040550225619455 6.550000000000006
    vertex 20.424715750509847 -40.000439742715244 6.550000000000006
    vertex 20.478400174751364 -39.94312146630781 6.550000000000006
  endloop
endfacet
facet normal -9.040331222489114e-17 2.4523968818046007e-23 1.0
  outer loop
    vertex 20.47840017475134 -20.040550225619455 6.550000000000006
    vertex 20.478400174751364 -39.94312146630781 6.550000000000006
    vertex 20.52822086188054 -20.101256908533607 6.550000000000006
  endloop
endfacet
facet normal -9.040331222489114e-17 2.4523968818046007e-23 1.0
  outer loop
    vertex 20.52822086188054 -20.101256908533607 6.550000000000006
    vertex 20.478400174751364 -39.94312146630781 6.550000000000006
    vertex 20.528220861880524 -39.88241478339372 6.550000000000006
  endloop
endfacet
facet normal -9.040331222489114e-17 2.4523968818046007e-23 1.0
  outer loop
    vertex 20.52822086188054 -20.101256908533607 6.550000000000006
    vertex 20.528220861880524 -39.88241478339372 6.550000000000006
    vertex 20.573964472066457 -39.81857964930903 6.550000000000006
  endloop
endfacet
facet normal -9.040331222489114e-17 2.4523968818046007e-23 1.0
  outer loop
    vertex 20.52822086188054 -20.101256908533607 6.550000000000006
    vertex 20.573964472066457 -39.81857964930903 6.550000000000006
    vertex 20.573964472066457 -20.165092042618255 6.550000000000006
  endloop
endfacet
facet normal -9.040331222489114e-17 2.4523968818046007e-23 1.0
  outer loop
    vertex 20.573964472066457 -20.165092042618255 6.550000000000006
    vertex 20.573964472066457 -39.81857964930903 6.550000000000006
    vertex 20.615435124147712 -39.751889415898 6.550000000000006
  endloop
endfacet
facet normal -9.040331222489114e-17 2.4523968818046007e-23 1.0
  outer loop
    vertex 20.573964472066457 -20.165092042618255 6.550000000000006
    vertex 20.615435124147712 -39.751889415898 6.550000000000006
    vertex 20.615435124147723 -20.231782276029303 6.550000000000006
  endloop
endfacet
facet normal -9.040331222489114e-17 2.4523968818046007e-23 1.0
  outer loop
    vertex 20.615435124147723 -20.231782276029303 6.550000000000006
    vertex 20.615435124147712 -39.751889415898 6.550000000000006
    vertex 20.652455234425332 -39.68262966097865 6.550000000000006
  endloop
endfacet
facet normal -9.040331222489114e-17 2.4523968818046007e-23 1.0
  outer loop
    vertex 20.615435124147723 -20.231782276029303 6.550000000000006
    vertex 20.652455234425332 -39.68262966097865 6.550000000000006
    vertex 20.65245523442532 -20.30104203094862 6.550000000000006
  endloop
endfacet
facet normal -9.040331222489114e-17 2.4523968818046007e-23 1.0
  outer loop
    vertex 20.65245523442532 -20.30104203094862 6.550000000000006
    vertex 20.652455234425332 -39.68262966097865 6.550000000000006
    vertex 20.684866277103666 -20.372574726472788 6.550000000000006
  endloop
endfacet
facet normal -9.040331222489114e-17 2.4523968818046007e-23 1.0
  outer loop
    vertex 20.684866277103666 -20.372574726472788 6.550000000000006
    vertex 20.652455234425332 -39.68262966097865 6.550000000000006
    vertex 20.684866277103673 -39.61109696545449 6.550000000000006
  endloop
endfacet
facet normal -9.040331222489114e-17 2.4523968818046007e-23 1.0
  outer loop
    vertex 20.684866277103666 -20.372574726472788 6.550000000000006
    vertex 20.684866277103673 -39.61109696545449 6.550000000000006
    vertex 20.712529463122195 -20.446074048617714 6.550000000000006
  endloop
endfacet
facet normal -9.040331222489114e-17 2.4523968818046007e-23 1.0
  outer loop
    vertex 20.712529463122195 -20.446074048617714 6.550000000000006
    vertex 20.684866277103673 -39.61109696545449 6.550000000000006
    vertex 20.71252946312221 -39.53759764330956 6.550000000000006
  endloop
endfacet
facet normal -9.040331222489114e-17 2.4523968818046007e-23 1.0
  outer loop
    vertex 20.712529463122195 -20.446074048617714 6.550000000000006
    vertex 20.71252946312221 -39.53759764330956 6.550000000000006
    vertex 20.73532633447142 -20.52122526200212 6.550000000000006
  endloop
endfacet
facet normal -9.040331222489114e-17 2.4523968818046007e-23 1.0
  outer loop
    vertex 20.73532633447142 -20.52122526200212 6.550000000000006
    vertex 20.71252946312221 -39.53759764330956 6.550000000000006
    vertex 20.73532633447142 -39.46244642992518 6.550000000000006
  endloop
endfacet
facet normal -9.040331222489114e-17 2.4523968818046007e-23 1.0
  outer loop
    vertex 20.73532633447142 -20.52122526200212 6.550000000000006
    vertex 20.73532633447142 -39.46244642992518 6.550000000000006
    vertex 20.75315927144838 -39.385965134334484 6.550000000000006
  endloop
endfacet
facet normal -9.040331222489114e-17 2.4523968818046007e-23 1.0
  outer loop
    vertex 20.73532633447142 -20.52122526200212 6.550000000000006
    vertex 20.75315927144838 -39.385965134334484 6.550000000000006
    vertex 20.753159271448375 -20.597706557592787 6.550000000000006
  endloop
endfacet
facet normal -9.040331222489114e-17 2.4523968818046007e-23 1.0
  outer loop
    vertex 20.753159271448375 -20.597706557592787 6.550000000000006
    vertex 20.75315927144838 -39.385965134334484 6.550000000000006
    vertex 20.765951910679167 -20.675190430740486 6.550000000000006
  endloop
endfacet
facet normal -9.040331222489114e-17 2.4523968818046007e-23 1.0
  outer loop
    vertex 20.765951910679167 -20.675190430740486 6.550000000000006
    vertex 20.75315927144838 -39.385965134334484 6.550000000000006
    vertex 20.765951910679167 -39.3084812611868 6.550000000000006
  endloop
endfacet
facet normal -9.040331222489114e-17 2.4523968818046007e-23 1.0
  outer loop
    vertex 20.765951910679167 -20.675190430740486 6.550000000000006
    vertex 20.765951910679167 -39.3084812611868 6.550000000000006
    vertex 20.773649472118674 -39.230326608322535 6.550000000000006
  endloop
endfacet
facet normal -9.040331222489114e-17 2.4523968818046007e-23 1.0
  outer loop
    vertex 20.765951910679167 -20.675190430740486 6.550000000000006
    vertex 20.773649472118674 -39.230326608322535 6.550000000000006
    vertex 20.773649472118674 -20.75334508360475 6.550000000000006
  endloop
endfacet
facet normal -9.040331222489114e-17 2.4523968818046007e-23 1.0
  outer loop
    vertex 20.773649472118674 -20.75334508360475 6.550000000000006
    vertex 20.773649472118674 -39.230326608322535 6.550000000000006
    vertex 20.785772127079042 -38.8600178070313 6.550000000000006
  endloop
endfacet
facet normal -9.040331222489114e-17 2.4523968818046007e-23 1.0
  outer loop
    vertex 20.773649472118674 -20.75334508360475 6.550000000000006
    vertex 20.785772127079042 -38.8600178070313 6.550000000000006
    vertex 20.785772127078996 -21.12365388489502 6.550000000000006
  endloop
endfacet
facet normal -9.040331222489114e-17 2.4523968818046007e-23 1.0
  outer loop
    vertex 20.785772127078996 -21.12365388489502 6.550000000000006
    vertex 20.785772127079042 -38.8600178070313 6.550000000000006
    vertex 22.276111853758326 -21.123653884895013 6.550000000000006
  endloop
endfacet
facet normal -9.040331222489114e-17 2.4523968818046007e-23 1.0
  outer loop
    vertex 22.276111853758326 -21.123653884895013 6.550000000000006
    vertex 20.785772127079042 -38.8600178070313 6.550000000000006
    vertex 22.27608193216312 -34.19130512506546 6.550000000000006
  endloop
endfacet
facet normal -9.040331222489114e-17 2.4523968818046007e-23 1.0
  outer loop
    vertex 22.276111853758326 -21.123653884895013 6.550000000000006
    vertex 22.27608193216312 -34.19130512506546 6.550000000000006
    vertex 22.276141775353477 -25.791305122081123 6.550000000000006
  endloop
endfacet
facet normal -9.040331222489114e-17 2.4523968818046007e-23 1.0
  outer loop
    vertex -11.283858224646552 -25.794652351211955 6.550000000000003
    vertex 19.579384638185317 -19.63183584596364 6.550000000000006
    vertex -11.283888146241733 -19.63183584596364 6.550000000000003
  endloop
endfacet
facet normal -9.040331222489114e-17 2.4523968818046007e-23 1.0
  outer loop
    vertex 19.579384638185317 -19.63183584596364 6.550000000000006
    vertex -11.283858224646552 -25.794652351211955 6.550000000000003
    vertex 5.196111853758263 -34.82228996276062 6.550000000000006
  endloop
endfacet
facet normal -9.040331222489114e-17 2.4523968818046007e-23 1.0
  outer loop
    vertex 5.196111853758263 -34.82228996276062 6.550000000000006
    vertex -11.283858224646552 -25.794652351211955 6.550000000000003
    vertex 5.196111853758263 -36.43228996276062 6.550000000000006
  endloop
endfacet
facet normal -9.040331222489114e-17 2.4523968818046007e-23 1.0
  outer loop
    vertex 19.579384638185317 -19.63183584596364 6.550000000000006
    vertex 5.196111853758263 -34.82228996276062 6.550000000000006
    vertex 10.00611185375829 -34.82228996276062 6.550000000000005
  endloop
endfacet
endsolid housing
