solid housing
facet normal 1.704869834214735e-15 -1.0 1.0072046377120575e-15
  outer loop
    vertex 140.48051460086316 -9.761835845963594 4.550000000000007
    vertex 125.97724181643436 -9.761835845963624 5.550000000000005
    vertex 125.97724181643436 -9.761835845963624 4.550000000000005
  endloop
endfacet
facet normal 1.704869834214735e-15 -1.0 1.0072046377120575e-15
  outer loop
    vertex 125.97724181643436 -9.761835845963624 5.550000000000005
    vertex 140.48051460086316 -9.761835845963594 4.550000000000007
    vertex 140.48051460086316 -9.761835845963594 7.35000000000001
  endloop
endfacet
facet normal 1.704869834214735e-15 -1.0 1.0072046377120575e-15
  outer loop
    vertex 125.97724181643436 -9.761835845963624 5.550000000000005
    vertex 140.48051460086316 -9.761835845963594 7.35000000000001
    vertex 119.97724181643436 -9.761835845963635 5.550000000000005
  endloop
endfacet
facet normal 1.704869834214735e-15 -1.0 1.0072046377120575e-15
  outer loop
    vertex 119.97724181643436 -9.761835845963635 5.550000000000005
    vertex 140.48051460086316 -9.761835845963594 7.35000000000001
    vertex 109.61724181643488 -9.761835845963645 7.350000000000008
  endloop
endfacet
facet normal 1.704869834214735e-15 -1.0 1.0072046377120575e-15
  outer loop
    vertex 119.97724181643436 -9.761835845963635 4.550000000000005
    vertex 109.61724181643488 -9.761835845963645 7.350000000000008
    vertex 109.61724181643488 -9.761835845963645 4.550000000000004
  endloop
endfacet
facet normal 1.704869834214735e-15 -1.0 1.0072046377120575e-15
  outer loop
    vertex 109.61724181643488 -9.761835845963645 7.350000000000008
    vertex 119.97724181643436 -9.761835845963635 4.550000000000005
    vertex 119.97724181643436 -9.761835845963635 5.550000000000005
  endloop
endfacet
facet normal -0.999999999974623 7.124189325769415e-06 0.0
  outer loop
    vertex 109.61727173803007 4.795347648788053 7.350000000000008
    vertex 109.61721189483971 -3.6046523541962867 5.550000000000003
    vertex 109.61721189483971 -3.6046523541962867 7.350000000000008
  endloop
endfacet
facet normal -0.999999999974623 7.124189325769415e-06 0.0
  outer loop
    vertex 109.61721189483971 -3.6046523541962867 5.550000000000003
    vertex 109.61727173803007 4.795347648788053 7.350000000000008
    vertex 109.61727173803007 4.795347648788053 5.550000000000003
  endloop
endfacet
facet normal -1.0 0.0 1.772844961758311e-15
  outer loop
    vertex 130.90724181643492 -4.232289962760612 7.350000000000009
    vertex 130.90724181643492 -5.84228996276061 4.550000000000004
    vertex 130.90724181643492 -5.84228996276061 7.350000000000009
  endloop
endfacet
facet normal -1.0 0.0 1.772844961758311e-15
  outer loop
    vertex 130.90724181643492 -5.84228996276061 4.550000000000004
    vertex 130.90724181643492 -4.232289962760612 7.350000000000009
    vertex 130.90724181643492 -4.232289962760612 4.550000000000004
  endloop
endfacet
facet normal 1.0 0.0 -1.569372651157093e-15
  outer loop
    vertex 126.09724181643489 -4.232289962760607 4.5500000000000105
    vertex 126.09724181643489 -5.84228996276061 7.35000000000001
    vertex 126.09724181643489 -5.84228996276061 4.5500000000000105
  endloop
endfacet
facet normal 1.0 0.0 -1.569372651157093e-15
  outer loop
    vertex 126.09724181643489 -5.84228996276061 7.35000000000001
    vertex 126.09724181643489 -4.232289962760607 4.5500000000000105
    vertex 126.09724181643489 -4.232289962760612 7.35000000000001
  endloop
endfacet
facet normal -2.6937835094521383e-16 -1.0 3.6095570976613177e-16
  outer loop
    vertex 130.90724181643492 -4.232289962760612 7.350000000000009
    vertex 126.09724181643489 -4.232289962760607 4.5500000000000105
    vertex 130.90724181643492 -4.232289962760612 4.550000000000004
  endloop
endfacet
facet normal -2.6937835094521383e-16 -1.0 3.6095570976613177e-16
  outer loop
    vertex 126.09724181643489 -4.232289962760607 4.5500000000000105
    vertex 130.90724181643492 -4.232289962760612 7.350000000000009
    vertex 126.09724181643489 -4.232289962760612 7.35000000000001
  endloop
endfacet
facet normal 0.729864072697829 0.6835923020228785 1.76883733787581e-18
  outer loop
    vertex 141.32584571318645 10.60676805078799 4.550000000000005
    vertex 141.37953013742796 10.549449774380552 7.35000000000001
    vertex 141.37953013742796 10.549449774380552 4.550000000000005
  endloop
endfacet
facet normal 0.729864072697829 0.6835923020228785 1.76883733787581e-18
  outer loop
    vertex 141.37953013742796 10.549449774380552 7.35000000000001
    vertex 141.32584571318645 10.60676805078799 4.550000000000005
    vertex 141.32584571318645 10.60676805078799 7.35000000000001
  endloop
endfacet
facet normal -0.9999999999882137 -4.85518190486236e-06 0.0
  outer loop
    vertex 109.61724181643488 10.958164154036366 7.350000000000008
    vertex 109.61727173803007 4.795347648788053 5.550000000000003
    vertex 109.61727173803007 4.795347648788053 7.350000000000008
  endloop
endfacet
facet normal -0.9999999999882137 -4.85518190486236e-06 0.0
  outer loop
    vertex 109.61727173803007 4.795347648788053 5.550000000000003
    vertex 109.61724181643488 10.958164154036366 7.350000000000008
    vertex 109.61724181643488 10.958164154036366 4.550000000000004
  endloop
endfacet
facet normal 0.849202181526636 0.5280678506502763 2.038353462382008e-17
  outer loop
    vertex 141.47509443474308 10.424907957381752 4.550000000000005
    vertex 141.51656508682433 10.358217723970702 7.35000000000001
    vertex 141.51656508682433 10.358217723970702 4.550000000000005
  endloop
endfacet
facet normal 0.849202181526636 0.5280678506502763 2.038353462382008e-17
  outer loop
    vertex 141.51656508682433 10.358217723970702 7.35000000000001
    vertex 141.47509443474308 10.424907957381752 4.550000000000005
    vertex 141.47509443474308 10.424907957381752 7.35000000000001
  endloop
endfacet
facet normal 0.6835923020228859 0.7298640726978219 -4.4868353765106834e-18
  outer loop
    vertex 141.2685274367791 10.660452475029425 7.35000000000001
    vertex 141.32584571318645 10.60676805078799 4.550000000000005
    vertex 141.2685274367791 10.660452475029425 4.550000000000005
  endloop
endfacet
facet normal 0.6835923020228859 0.7298640726978219 -4.4868353765106834e-18
  outer loop
    vertex 141.32584571318645 10.60676805078799 4.550000000000005
    vertex 141.2685274367791 10.660452475029425 7.35000000000001
    vertex 141.32584571318645 10.60676805078799 7.35000000000001
  endloop
endfacet
facet normal 2.6937835094521393e-16 1.0 -3.609557097661318e-16
  outer loop
    vertex 126.09724181643489 -5.84228996276061 4.5500000000000105
    vertex 130.90724181643492 -5.84228996276061 7.350000000000009
    vertex 130.90724181643492 -5.84228996276061 4.550000000000004
  endloop
endfacet
facet normal 2.6937835094521393e-16 1.0 -3.609557097661318e-16
  outer loop
    vertex 130.90724181643492 -5.84228996276061 7.350000000000009
    vertex 126.09724181643489 -5.84228996276061 4.5500000000000105
    vertex 126.09724181643489 -5.84228996276061 7.35000000000001
  endloop
endfacet
facet normal 0.9569403357322259 0.2902846772544066 4.3864800424908554e-17
  outer loop
    vertex 141.61365942579883 10.143925951382293 4.550000000000005
    vertex 141.63645629714804 10.06877473799789 7.35000000000001
    vertex 141.63645629714804 10.06877473799789 4.550000000000005
  endloop
endfacet
facet normal 0.9569403357322259 0.2902846772544066 4.3864800424908554e-17
  outer loop
    vertex 141.63645629714804 10.06877473799789 7.35000000000001
    vertex 141.61365942579883 10.143925951382293 4.550000000000005
    vertex 141.61365942579883 10.143925951382293 7.35000000000001
  endloop
endfacet
facet normal 0.9994645874763666 0.03271908282175061 6.435675256705197e-17
  outer loop
    vertex 141.67477943479528 9.83665491639526 4.550000000000005
    vertex 141.68690208975562 9.466346115104987 7.35000000000001
    vertex 141.68690208975562 9.466346115104987 4.550000000000005
  endloop
endfacet
facet normal 0.9994645874763666 0.03271908282175061 6.435675256705197e-17
  outer loop
    vertex 141.68690208975562 9.466346115104987 7.35000000000001
    vertex 141.67477943479528 9.83665491639526 4.550000000000005
    vertex 141.67477943479528 9.83665491639526 7.35000000000001
  endloop
endfacet
facet normal 0.9359059267573083 -0.35225004792127984 8.651440725158905e-17
  outer loop
    vertex 141.61365942579883 -8.94759764330955 4.550000000000007
    vertex 141.5859962397803 -9.021096965454488 7.35000000000001
    vertex 141.5859962397803 -9.021096965454488 4.550000000000007
  endloop
endfacet
facet normal 0.9359059267573083 -0.35225004792127984 8.651440725158905e-17
  outer loop
    vertex 141.5859962397803 -9.021096965454488 7.35000000000001
    vertex 141.61365942579883 -8.94759764330955 4.550000000000007
    vertex 141.61365942579883 -8.94759764330955 7.35000000000001
  endloop
endfacet
facet normal 0.2270762630343712 -0.9738769792773341 8.189895464115759e-17
  outer loop
    vertex 140.78785240039645 -9.72105032667677 7.35000000000001
    vertex 140.71137110480575 -9.738883263653728 4.550000000000007
    vertex 140.78785240039645 -9.72105032667677 4.550000000000007
  endloop
endfacet
facet normal 0.2270762630343712 -0.9738769792773341 8.189895464115759e-17
  outer loop
    vertex 140.71137110480575 -9.738883263653728 4.550000000000007
    vertex 140.78785240039645 -9.72105032667677 7.35000000000001
    vertex 140.71137110480575 -9.738883263653728 7.35000000000001
  endloop
endfacet
facet normal 0.9866433320849085 0.16289547339441043 5.4577696253336314e-17
  outer loop
    vertex 141.654289234125 9.992293442407219 4.550000000000005
    vertex 141.66708187335578 9.914809569259521 7.35000000000001
    vertex 141.66708187335578 9.914809569259521 4.550000000000005
  endloop
endfacet
facet normal 0.9866433320849085 0.16289547339441043 5.4577696253336314e-17
  outer loop
    vertex 141.66708187335578 9.914809569259521 7.35000000000001
    vertex 141.654289234125 9.992293442407219 4.550000000000005
    vertex 141.654289234125 9.992293442407219 7.35000000000001
  endloop
endfacet
facet normal 0.5280678506504222 -0.8492021815265451 9.340818752782334e-17
  outer loop
    vertex 141.1439856197803 -9.559688464271819 7.35000000000001
    vertex 141.0772953863693 -9.601159116353065 4.550000000000007
    vertex 141.1439856197803 -9.559688464271819 4.550000000000007
  endloop
endfacet
facet normal 0.5280678506504222 -0.8492021815265451 9.340818752782334e-17
  outer loop
    vertex 141.0772953863693 -9.601159116353065 4.550000000000007
    vertex 141.1439856197803 -9.559688464271819 7.35000000000001
    vertex 141.0772953863693 -9.601159116353065 7.35000000000001
  endloop
endfacet
facet normal 0.8128466845916991 -0.5824776968676851 9.409835361950067e-17
  outer loop
    vertex 141.47509443474308 -9.22857964930902 4.550000000000007
    vertex 141.42935082455716 -9.292414783393717 7.35000000000001
    vertex 141.42935082455716 -9.292414783393717 4.550000000000007
  endloop
endfacet
facet normal 0.8128466845916991 -0.5824776968676851 9.409835361950067e-17
  outer loop
    vertex 141.42935082455716 -9.292414783393717 7.35000000000001
    vertex 141.47509443474308 -9.22857964930902 4.550000000000007
    vertex 141.47509443474308 -9.22857964930902 7.35000000000001
  endloop
endfacet
facet normal 0.7298640726978095 -0.6835923020228992 9.55010276871246e-17
  outer loop
    vertex 141.379530137428 -9.353121466307801 4.550000000000007
    vertex 141.32584571318645 -9.410439742715239 7.35000000000001
    vertex 141.32584571318645 -9.410439742715239 4.550000000000007
  endloop
endfacet
facet normal 0.7298640726978095 -0.6835923020228992 9.55010276871246e-17
  outer loop
    vertex 141.32584571318645 -9.410439742715239 7.35000000000001
    vertex 141.379530137428 -9.353121466307801 4.550000000000007
    vertex 141.379530137428 -9.353121466307801 7.35000000000001
  endloop
endfacet
facet normal 0.8492021815266354 -0.5280678506502775 9.27906640604734e-17
  outer loop
    vertex 141.51656508682433 -9.16188941589799 4.550000000000007
    vertex 141.47509443474308 -9.22857964930902 7.35000000000001
    vertex 141.47509443474308 -9.22857964930902 4.550000000000007
  endloop
endfacet
facet normal 0.8492021815266354 -0.5280678506502775 9.27906640604734e-17
  outer loop
    vertex 141.47509443474308 -9.22857964930902 7.35000000000001
    vertex 141.51656508682433 -9.16188941589799 4.550000000000007
    vertex 141.51656508682433 -9.16188941589799 7.35000000000001
  endloop
endfacet
facet normal 0.4127070298043767 -0.9108638249211841 8.994848237626829e-17
  outer loop
    vertex 141.00803563144993 -9.638179226630687 7.35000000000001
    vertex 140.93650293592572 -9.670590269309043 4.550000000000007
    vertex 141.00803563144993 -9.638179226630687 4.550000000000007
  endloop
endfacet
facet normal 0.4127070298043767 -0.9108638249211841 8.994848237626829e-17
  outer loop
    vertex 140.93650293592572 -9.670590269309043 4.550000000000007
    vertex 141.00803563144993 -9.638179226630687 7.35000000000001
    vertex 140.93650293592572 -9.670590269309043 7.35000000000001
  endloop
endfacet
facet normal 0.9951847266721778 -0.09801714032975388 7.303464700130521e-17
  outer loop
    vertex 141.67477943479528 -8.640326608322527 4.550000000000007
    vertex 141.66708187335578 -8.718481261186794 7.35000000000001
    vertex 141.66708187335578 -8.718481261186794 4.550000000000007
  endloop
endfacet
facet normal 0.9951847266721778 -0.09801714032975388 7.303464700130521e-17
  outer loop
    vertex 141.66708187335578 -8.718481261186794 7.35000000000001
    vertex 141.67477943479528 -8.640326608322527 4.550000000000007
    vertex 141.67477943479528 -8.640326608322527 7.35000000000001
  endloop
endfacet
facet normal -1.937575457753584e-15 1.0 -6.85585473036177e-17
  outer loop
    vertex 141.68690208975562 9.466346115104987 7.35000000000001
    vertex 143.17724181643496 9.466346115104994 4.550000000000005
    vertex 141.68690208975562 9.466346115104987 4.550000000000005
  endloop
endfacet
facet normal -1.937575457753584e-15 1.0 -6.85585473036177e-17
  outer loop
    vertex 143.17724181643496 9.466346115104994 4.550000000000005
    vertex 141.68690208975562 9.466346115104987 7.35000000000001
    vertex 143.17724181643496 9.466346115104994 7.35000000000001
  endloop
endfacet
facet normal 0.9994645874763655 -0.03271908282178201 6.8843098141786e-17
  outer loop
    vertex 141.68690208975568 -8.27001780703129 4.550000000000007
    vertex 141.67477943479528 -8.640326608322527 7.35000000000001
    vertex 141.67477943479528 -8.640326608322527 4.550000000000007
  endloop
endfacet
facet normal 0.9994645874763655 -0.03271908282178201 6.8843098141786e-17
  outer loop
    vertex 141.67477943479528 -8.640326608322527 7.35000000000001
    vertex 141.68690208975568 -8.27001780703129 4.550000000000007
    vertex 141.68690208975568 -8.27001780703129 7.35000000000001
  endloop
endfacet
facet normal -9.040331222489114e-17 2.4523968818046007e-23 1.0
  outer loop
    vertex 143.1772418164349 -8.27001780703129 7.35000000000001
    vertex 143.17721189483976 -3.6013051250654575 7.35000000000001
    vertex 141.68690208975568 -8.27001780703129 7.35000000000001
  endloop
endfacet
facet normal -9.040331222489114e-17 2.4523968818046007e-23 1.0
  outer loop
    vertex 109.61724181643488 -9.761835845963645 7.350000000000008
    vertex 109.61727173803007 4.795347648788053 7.350000000000008
    vertex 109.61721189483971 -3.6046523541962867 7.350000000000008
  endloop
endfacet
facet normal -9.040331222489114e-17 2.4523968818046007e-23 1.0
  outer loop
    vertex 109.61727173803007 4.795347648788053 7.350000000000008
    vertex 109.61724181643488 -9.761835845963645 7.350000000000008
    vertex 126.09724181643489 -5.84228996276061 7.35000000000001
  endloop
endfacet
facet normal -9.040331222489114e-17 2.4523968818046007e-23 1.0
  outer loop
    vertex 126.09724181643489 -5.84228996276061 7.35000000000001
    vertex 109.61724181643488 -9.761835845963645 7.350000000000008
    vertex 140.48051460086316 -9.761835845963594 7.35000000000001
  endloop
endfacet
facet normal -9.040331222489114e-17 2.4523968818046007e-23 1.0
  outer loop
    vertex 126.09724181643489 -5.84228996276061 7.35000000000001
    vertex 140.48051460086316 -9.761835845963594 7.35000000000001
    vertex 130.90724181643492 -5.84228996276061 7.350000000000009
  endloop
endfacet
facet normal -9.040331222489114e-17 2.4523968818046007e-23 1.0
  outer loop
    vertex 130.90724181643492 -5.84228996276061 7.350000000000009
    vertex 140.48051460086316 -9.761835845963594 7.35000000000001
    vertex 130.90724181643492 -4.232289962760612 7.350000000000009
  endloop
endfacet
facet normal -9.040331222489114e-17 2.4523968818046007e-23 1.0
  outer loop
    vertex 130.90724181643492 -4.232289962760612 7.350000000000009
    vertex 140.48051460086316 -9.761835845963594 7.35000000000001
    vertex 140.48051460086194 10.958164154036366 7.35000000000001
  endloop
endfacet
facet normal -9.040331222489114e-17 2.4523968818046007e-23 1.0
  outer loop
    vertex 140.48051460086194 10.958164154036366 7.35000000000001
    vertex 140.48051460086316 -9.761835845963594 7.35000000000001
    vertex 140.55573257879374 10.955701772396758 7.35000000000001
  endloop
endfacet
facet normal -9.040331222489114e-17 2.4523968818046007e-23 1.0
  outer loop
    vertex 140.55573257879374 10.955701772396758 7.35000000000001
    vertex 140.48051460086316 -9.761835845963594 7.35000000000001
    vertex 140.55573257879377 -9.759373464324028 7.35000000000001
  endloop
endfacet
facet normal -9.040331222489114e-17 2.4523968818046007e-23 1.0
  outer loop
    vertex 140.55573257879374 10.955701772396758 7.35000000000001
    vertex 140.55573257879377 -9.759373464324028 7.35000000000001
    vertex 140.63388723165806 10.948004210957258 7.35000000000001
  endloop
endfacet
facet normal -9.040331222489114e-17 2.4523968818046007e-23 1.0
  outer loop
    vertex 140.63388723165806 10.948004210957258 7.35000000000001
    vertex 140.55573257879377 -9.759373464324028 7.35000000000001
    vertex 140.63388723165804 -9.751675902884534 7.35000000000001
  endloop
endfacet
facet normal -9.040331222489114e-17 2.4523968818046007e-23 1.0
  outer loop
    vertex 140.63388723165806 10.948004210957258 7.35000000000001
    vertex 140.63388723165804 -9.751675902884534 7.35000000000001
    vertex 140.71137110480575 -9.738883263653728 7.35000000000001
  endloop
endfacet
facet normal -9.040331222489114e-17 2.4523968818046007e-23 1.0
  outer loop
    vertex 140.63388723165806 10.948004210957258 7.35000000000001
    vertex 140.71137110480575 -9.738883263653728 7.35000000000001
    vertex 140.71137110480575 10.935211571726459 7.35000000000001
  endloop
endfacet
facet normal -9.040331222489114e-17 2.4523968818046007e-23 1.0
  outer loop
    vertex 140.71137110480575 10.935211571726459 7.35000000000001
    vertex 140.71137110480575 -9.738883263653728 7.35000000000001
    vertex 140.78785240039645 10.917378634749497 7.35000000000001
  endloop
endfacet
facet normal -9.040331222489114e-17 2.4523968818046007e-23 1.0
  outer loop
    vertex 140.78785240039645 10.917378634749497 7.35000000000001
    vertex 140.71137110480575 -9.738883263653728 7.35000000000001
    vertex 140.78785240039645 -9.72105032667677 7.35000000000001
  endloop
endfacet
facet normal -9.040331222489114e-17 2.4523968818046007e-23 1.0
  outer loop
    vertex 140.78785240039645 10.917378634749497 7.35000000000001
    vertex 140.78785240039645 -9.72105032667677 7.35000000000001
    vertex 140.8630036137808 -9.698253455327572 7.35000000000001
  endloop
endfacet
facet normal -9.040331222489114e-17 2.4523968818046007e-23 1.0
  outer loop
    vertex 140.78785240039645 10.917378634749497 7.35000000000001
    vertex 140.8630036137808 -9.698253455327572 7.35000000000001
    vertex 140.86300361378085 10.894581763400287 7.35000000000001
  endloop
endfacet
facet normal -9.040331222489114e-17 2.4523968818046007e-23 1.0
  outer loop
    vertex 140.86300361378085 10.894581763400287 7.35000000000001
    vertex 140.8630036137808 -9.698253455327572 7.35000000000001
    vertex 140.93650293592572 -9.670590269309043 7.35000000000001
  endloop
endfacet
facet normal -9.040331222489114e-17 2.4523968818046007e-23 1.0
  outer loop
    vertex 140.86300361378085 10.894581763400287 7.35000000000001
    vertex 140.93650293592572 -9.670590269309043 7.35000000000001
    vertex 140.93650293592572 10.866918577381758 7.35000000000001
  endloop
endfacet
facet normal -9.040331222489114e-17 2.4523968818046007e-23 1.0
  outer loop
    vertex 140.93650293592572 10.866918577381758 7.35000000000001
    vertex 140.93650293592572 -9.670590269309043 7.35000000000001
    vertex 141.00803563144993 -9.638179226630687 7.35000000000001
  endloop
endfacet
facet normal -9.040331222489114e-17 2.4523968818046007e-23 1.0
  outer loop
    vertex 140.93650293592572 10.866918577381758 7.35000000000001
    vertex 141.00803563144993 -9.638179226630687 7.35000000000001
    vertex 141.00803563144993 10.834507534703393 7.35000000000001
  endloop
endfacet
facet normal -9.040331222489114e-17 2.4523968818046007e-23 1.0
  outer loop
    vertex 141.00803563144993 10.834507534703393 7.35000000000001
    vertex 141.00803563144993 -9.638179226630687 7.35000000000001
    vertex 141.0772953863693 -9.601159116353065 7.35000000000001
  endloop
endfacet
facet normal -9.040331222489114e-17 2.4523968818046007e-23 1.0
  outer loop
    vertex 141.00803563144993 10.834507534703393 7.35000000000001
    vertex 141.0772953863693 -9.601159116353065 7.35000000000001
    vertex 141.07729538636926 10.797487424425798 7.35000000000001
  endloop
endfacet
facet normal -9.040331222489114e-17 2.4523968818046007e-23 1.0
  outer loop
    vertex 141.07729538636926 10.797487424425798 7.35000000000001
    vertex 141.0772953863693 -9.601159116353065 7.35000000000001
    vertex 141.14398561978024 10.756016772344573 7.35000000000001
  endloop
endfacet
facet normal -9.040331222489114e-17 2.4523968818046007e-23 1.0
  outer loop
    vertex 141.14398561978024 10.756016772344573 7.35000000000001
    vertex 141.0772953863693 -9.601159116353065 7.35000000000001
    vertex 141.1439856197803 -9.559688464271819 7.35000000000001
  endloop
endfacet
facet normal -9.040331222489114e-17 2.4523968818046007e-23 1.0
  outer loop
    vertex 141.14398561978024 10.756016772344573 7.35000000000001
    vertex 141.1439856197803 -9.559688464271819 7.35000000000001
    vertex 141.207820753865 10.710273162158582 7.35000000000001
  endloop
endfacet
facet normal -9.040331222489114e-17 2.4523968818046007e-23 1.0
  outer loop
    vertex 141.207820753865 10.710273162158582 7.35000000000001
    vertex 141.1439856197803 -9.559688464271819 7.35000000000001
    vertex 141.20782075386498 -9.513944854085867 7.35000000000001
  endloop
endfacet
facet normal -9.040331222489114e-17 2.4523968818046007e-23 1.0
  outer loop
    vertex 141.207820753865 10.710273162158582 7.35000000000001
    vertex 141.20782075386498 -9.513944854085867 7.35000000000001
    vertex 141.26852743677907 -9.464124166956717 7.35000000000001
  endloop
endfacet
facet normal -9.040331222489114e-17 2.4523968818046007e-23 1.0
  outer loop
    vertex 141.207820753865 10.710273162158582 7.35000000000001
    vertex 141.26852743677907 -9.464124166956717 7.35000000000001
    vertex 141.2685274367791 10.660452475029425 7.35000000000001
  endloop
endfacet
facet normal -9.040331222489114e-17 2.4523968818046007e-23 1.0
  outer loop
    vertex 141.2685274367791 10.660452475029425 7.35000000000001
    vertex 141.26852743677907 -9.464124166956717 7.35000000000001
    vertex 141.32584571318645 -9.410439742715239 7.35000000000001
  endloop
endfacet
facet normal -9.040331222489114e-17 2.4523968818046007e-23 1.0
  outer loop
    vertex 141.2685274367791 10.660452475029425 7.35000000000001
    vertex 141.32584571318645 -9.410439742715239 7.35000000000001
    vertex 141.32584571318645 10.60676805078799 7.35000000000001
  endloop
endfacet
facet normal -9.040331222489114e-17 2.4523968818046007e-23 1.0
  outer loop
    vertex 141.32584571318645 10.60676805078799 7.35000000000001
    vertex 141.32584571318645 -9.410439742715239 7.35000000000001
    vertex 141.379530137428 -9.353121466307801 7.35000000000001
  endloop
endfacet
facet normal -9.040331222489114e-17 2.4523968818046007e-23 1.0
  outer loop
    vertex 141.32584571318645 10.60676805078799 7.35000000000001
    vertex 141.379530137428 -9.353121466307801 7.35000000000001
    vertex 141.37953013742796 10.549449774380552 7.35000000000001
  endloop
endfacet
facet normal -9.040331222489114e-17 2.4523968818046007e-23 1.0
  outer loop
    vertex 141.37953013742796 10.549449774380552 7.35000000000001
    vertex 141.379530137428 -9.353121466307801 7.35000000000001
    vertex 141.42935082455716 10.4887430914664 7.35000000000001
  endloop
endfacet
facet normal -9.040331222489114e-17 2.4523968818046007e-23 1.0
  outer loop
    vertex 141.42935082455716 10.4887430914664 7.35000000000001
    vertex 141.379530137428 -9.353121466307801 7.35000000000001
    vertex 141.42935082455716 -9.292414783393717 7.35000000000001
  endloop
endfacet
facet normal -9.040331222489114e-17 2.4523968818046007e-23 1.0
  outer loop
    vertex 141.42935082455716 10.4887430914664 7.35000000000001
    vertex 141.42935082455716 -9.292414783393717 7.35000000000001
    vertex 141.47509443474308 -9.22857964930902 7.35000000000001
  endloop
endfacet
facet normal -9.040331222489114e-17 2.4523968818046007e-23 1.0
  outer loop
    vertex 141.42935082455716 10.4887430914664 7.35000000000001
    vertex 141.47509443474308 -9.22857964930902 7.35000000000001
    vertex 141.47509443474308 10.424907957381752 7.35000000000001
  endloop
endfacet
facet normal -9.040331222489114e-17 2.4523968818046007e-23 1.0
  outer loop
    vertex 141.47509443474308 10.424907957381752 7.35000000000001
    vertex 141.47509443474308 -9.22857964930902 7.35000000000001
    vertex 141.51656508682433 -9.16188941589799 7.35000000000001
  endloop
endfacet
facet normal -9.040331222489114e-17 2.4523968818046007e-23 1.0
  outer loop
    vertex 141.47509443474308 10.424907957381752 7.35000000000001
    vertex 141.51656508682433 -9.16188941589799 7.35000000000001
    vertex 141.51656508682433 10.358217723970702 7.35000000000001
  endloop
endfacet
facet normal -9.040331222489114e-17 2.4523968818046007e-23 1.0
  outer loop
    vertex 141.51656508682433 10.358217723970702 7.35000000000001
    vertex 141.51656508682433 -9.16188941589799 7.35000000000001
    vertex 141.55358519710197 -9.092629660978638 7.35000000000001
  endloop
endfacet
facet normal -9.040331222489114e-17 2.4523968818046007e-23 1.0
  outer loop
    vertex 141.51656508682433 10.358217723970702 7.35000000000001
    vertex 141.55358519710197 -9.092629660978638 7.35000000000001
    vertex 141.55358519710194 10.288957969051388 7.35000000000001
  endloop
endfacet
facet normal -9.040331222489114e-17 2.4523968818046007e-23 1.0
  outer loop
    vertex 141.55358519710194 10.288957969051388 7.35000000000001
    vertex 141.55358519710197 -9.092629660978638 7.35000000000001
    vertex 141.5859962397803 10.217425273527219 7.35000000000001
  endloop
endfacet
facet normal -9.040331222489114e-17 2.4523968818046007e-23 1.0
  outer loop
    vertex 141.5859962397803 10.217425273527219 7.35000000000001
    vertex 141.55358519710197 -9.092629660978638 7.35000000000001
    vertex 141.5859962397803 -9.021096965454488 7.35000000000001
  endloop
endfacet
facet normal -9.040331222489114e-17 2.4523968818046007e-23 1.0
  outer loop
    vertex 141.5859962397803 10.217425273527219 7.35000000000001
    vertex 141.5859962397803 -9.021096965454488 7.35000000000001
    vertex 141.61365942579883 -8.94759764330955 7.35000000000001
  endloop
endfacet
facet normal -9.040331222489114e-17 2.4523968818046007e-23 1.0
  outer loop
    vertex 141.5859962397803 10.217425273527219 7.35000000000001
    vertex 141.61365942579883 -8.94759764330955 7.35000000000001
    vertex 141.61365942579883 10.143925951382293 7.35000000000001
  endloop
endfacet
facet normal -9.040331222489114e-17 2.4523968818046007e-23 1.0
  outer loop
    vertex 141.61365942579883 10.143925951382293 7.35000000000001
    vertex 141.61365942579883 -8.94759764330955 7.35000000000001
    vertex 141.63645629714804 -8.872446429925171 7.35000000000001
  endloop
endfacet
facet normal -9.040331222489114e-17 2.4523968818046007e-23 1.0
  outer loop
    vertex 141.61365942579883 10.143925951382293 7.35000000000001
    vertex 141.63645629714804 -8.872446429925171 7.35000000000001
    vertex 141.63645629714804 10.06877473799789 7.35000000000001
  endloop
endfacet
facet normal -9.040331222489114e-17 2.4523968818046007e-23 1.0
  outer loop
    vertex 141.63645629714804 10.06877473799789 7.35000000000001
    vertex 141.63645629714804 -8.872446429925171 7.35000000000001
    vertex 141.654289234125 -8.795965134334475 7.35000000000001
  endloop
endfacet
facet normal -9.040331222489114e-17 2.4523968818046007e-23 1.0
  outer loop
    vertex 141.63645629714804 10.06877473799789 7.35000000000001
    vertex 141.654289234125 -8.795965134334475 7.35000000000001
    vertex 141.654289234125 9.992293442407219 7.35000000000001
  endloop
endfacet
facet normal -9.040331222489114e-17 2.4523968818046007e-23 1.0
  outer loop
    vertex 141.654289234125 9.992293442407219 7.35000000000001
    vertex 141.654289234125 -8.795965134334475 7.35000000000001
    vertex 141.66708187335578 9.914809569259521 7.35000000000001
  endloop
endfacet
facet normal -9.040331222489114e-17 2.4523968818046007e-23 1.0
  outer loop
    vertex 141.66708187335578 9.914809569259521 7.35000000000001
    vertex 141.654289234125 -8.795965134334475 7.35000000000001
    vertex 141.66708187335578 -8.718481261186794 7.35000000000001
  endloop
endfacet
facet normal -9.040331222489114e-17 2.4523968818046007e-23 1.0
  outer loop
    vertex 141.66708187335578 9.914809569259521 7.35000000000001
    vertex 141.66708187335578 -8.718481261186794 7.35000000000001
    vertex 141.67477943479528 -8.640326608322527 7.35000000000001
  endloop
endfacet
facet normal -9.040331222489114e-17 2.4523968818046007e-23 1.0
  outer loop
    vertex 141.66708187335578 9.914809569259521 7.35000000000001
    vertex 141.67477943479528 -8.640326608322527 7.35000000000001
    vertex 141.67477943479528 9.83665491639526 7.35000000000001
  endloop
endfacet
facet normal -9.040331222489114e-17 2.4523968818046007e-23 1.0
  outer loop
    vertex 141.67477943479528 9.83665491639526 7.35000000000001
    vertex 141.67477943479528 -8.640326608322527 7.35000000000001
    vertex 141.68690208975568 -8.27001780703129 7.35000000000001
  endloop
endfacet
facet normal -9.040331222489114e-17 2.4523968818046007e-23 1.0
  outer loop
    vertex 141.67477943479528 9.83665491639526 7.35000000000001
    vertex 141.68690208975568 -8.27001780703129 7.35000000000001
    vertex 141.68690208975562 9.466346115104987 7.35000000000001
  endloop
endfacet
facet normal -9.040331222489114e-17 2.4523968818046007e-23 1.0
  outer loop
    vertex 141.68690208975562 9.466346115104987 7.35000000000001
    vertex 141.68690208975568 -8.27001780703129 7.35000000000001
    vertex 143.17724181643496 9.466346115104994 7.35000000000001
  endloop
endfacet
facet normal -9.040331222489114e-17 2.4523968818046007e-23 1.0
  outer loop
    vertex 143.17724181643496 9.466346115104994 7.35000000000001
    vertex 141.68690208975568 -8.27001780703129 7.35000000000001
    vertex 143.17721189483976 -3.6013051250654575 7.35000000000001
  endloop
endfacet
facet normal -9.040331222489114e-17 2.4523968818046007e-23 1.0
  outer loop
    vertex 143.17724181643496 9.466346115104994 7.35000000000001
    vertex 143.17721189483976 -3.6013051250654575 7.35000000000001
    vertex 143.1772717380301 4.798694877918883 7.35000000000001
  endloop
endfacet
facet normal -9.040331222489114e-17 2.4523968818046007e-23 1.0
  outer loop
    vertex 109.61727173803007 4.795347648788053 7.350000000000008
    vertex 140.48051460086194 10.958164154036366 7.35000000000001
    vertex 109.61724181643488 10.958164154036366 7.350000000000008
  endloop
endfacet
facet normal -9.040331222489114e-17 2.4523968818046007e-23 1.0
  outer loop
    vertex 140.48051460086194 10.958164154036366 7.35000000000001
    vertex 109.61727173803007 4.795347648788053 7.350000000000008
    vertex 126.09724181643489 -4.232289962760612 7.35000000000001
  endloop
endfacet
facet normal -9.040331222489114e-17 2.4523968818046007e-23 1.0
  outer loop
    vertex 126.09724181643489 -4.232289962760612 7.35000000000001
    vertex 109.61727173803007 4.795347648788053 7.350000000000008
    vertex 126.09724181643489 -5.84228996276061 7.35000000000001
  endloop
endfacet
facet normal -9.040331222489114e-17 2.4523968818046007e-23 1.0
  outer loop
    vertex 140.48051460086194 10.958164154036366 7.35000000000001
    vertex 126.09724181643489 -4.232289962760612 7.35000000000001
    vertex 130.90724181643492 -4.232289962760612 7.350000000000009
  endloop
endfacet
facet normal 0.471396736826001 0.8819212643483533 -2.905143496077155e-17
  outer loop
    vertex 141.00803563144993 10.834507534703393 7.35000000000001
    vertex 141.07729538636926 10.797487424425798 4.550000000000005
    vertex 141.00803563144993 10.834507534703393 4.550000000000005
  endloop
endfacet
facet normal 0.471396736826001 0.8819212643483533 -2.905143496077155e-17
  outer loop
    vertex 141.07729538636926 10.797487424425798 4.550000000000005
    vertex 141.00803563144993 10.834507534703393 7.35000000000001
    vertex 141.07729538636926 10.797487424425798 7.35000000000001
  endloop
endfacet
facet normal 0.8819212643483456 0.47139673682601524 2.644907967154558e-17
  outer loop
    vertex 141.51656508682433 10.358217723970702 4.550000000000005
    vertex 141.55358519710194 10.288957969051388 7.35000000000001
    vertex 141.55358519710194 10.288957969051388 4.550000000000005
  endloop
endfacet
facet normal 0.8819212643483456 0.47139673682601524 2.644907967154558e-17
  outer loop
    vertex 141.55358519710194 10.288957969051388 7.35000000000001
    vertex 141.51656508682433 10.358217723970702 4.550000000000005
    vertex 141.51656508682433 10.358217723970702 7.35000000000001
  endloop
endfacet
facet normal 0.35225004792141335 0.9359059267572581 -4.0691956439793186e-17
  outer loop
    vertex 140.86300361378085 10.894581763400287 7.35000000000001
    vertex 140.93650293592572 10.866918577381758 4.550000000000005
    vertex 140.86300361378085 10.894581763400287 4.550000000000005
  endloop
endfacet
facet normal 0.35225004792141335 0.9359059267572581 -4.0691956439793186e-17
  outer loop
    vertex 140.93650293592572 10.866918577381758 4.550000000000005
    vertex 140.86300361378085 10.894581763400287 7.35000000000001
    vertex 140.93650293592572 10.866918577381758 7.35000000000001
  endloop
endfacet
facet normal 0.4713967368259832 -0.8819212643483628 9.18750464790135e-17
  outer loop
    vertex 141.0772953863693 -9.601159116353065 7.35000000000001
    vertex 141.00803563144993 -9.638179226630687 4.550000000000007
    vertex 141.0772953863693 -9.601159116353065 4.550000000000007
  endloop
endfacet
facet normal 0.4713967368259832 -0.8819212643483628 9.18750464790135e-17
  outer loop
    vertex 141.00803563144993 -9.638179226630687 4.550000000000007
    vertex 141.0772953863693 -9.601159116353065 7.35000000000001
    vertex 141.00803563144993 -9.638179226630687 7.35000000000001
  endloop
endfacet
facet normal 0.032719082821783506 -0.9994645874763656 7.070209600865015e-17
  outer loop
    vertex 140.55573257879377 -9.759373464324028 7.35000000000001
    vertex 140.48051460086316 -9.761835845963594 4.550000000000007
    vertex 140.55573257879377 -9.759373464324028 4.550000000000007
  endloop
endfacet
facet normal 0.032719082821783506 -0.9994645874763656 7.070209600865015e-17
  outer loop
    vertex 140.48051460086316 -9.761835845963594 4.550000000000007
    vertex 140.55573257879377 -9.759373464324028 7.35000000000001
    vertex 140.48051460086316 -9.761835845963594 7.35000000000001
  endloop
endfacet
facet normal 0.29028467725440316 0.9569403357322269 -4.626314479525072e-17
  outer loop
    vertex 140.78785240039645 10.917378634749497 7.35000000000001
    vertex 140.86300361378085 10.894581763400287 4.550000000000005
    vertex 140.78785240039645 10.917378634749497 4.550000000000005
  endloop
endfacet
facet normal 0.29028467725440316 0.9569403357322269 -4.626314479525072e-17
  outer loop
    vertex 140.86300361378085 10.894581763400287 4.550000000000005
    vertex 140.78785240039645 10.917378634749497 7.35000000000001
    vertex 140.86300361378085 10.894581763400287 7.35000000000001
  endloop
endfacet
facet normal 0.6835923020229119 -0.7298640726977977 9.559000573001859e-17
  outer loop
    vertex 141.32584571318645 -9.410439742715239 7.35000000000001
    vertex 141.26852743677907 -9.464124166956717 4.550000000000007
    vertex 141.32584571318645 -9.410439742715239 4.550000000000007
  endloop
endfacet
facet normal 0.6835923020229119 -0.7298640726977977 9.559000573001859e-17
  outer loop
    vertex 141.26852743677907 -9.464124166956717 4.550000000000007
    vertex 141.32584571318645 -9.410439742715239 7.35000000000001
    vertex 141.26852743677907 -9.464124166956717 7.35000000000001
  endloop
endfacet
facet normal 0.2902846772543502 -0.956940335732243 8.494973375282196e-17
  outer loop
    vertex 140.8630036137808 -9.698253455327572 7.35000000000001
    vertex 140.78785240039645 -9.72105032667677 4.550000000000007
    vertex 140.8630036137808 -9.698253455327572 4.550000000000007
  endloop
endfacet
facet normal 0.2902846772543502 -0.956940335732243 8.494973375282196e-17
  outer loop
    vertex 140.78785240039645 -9.72105032667677 4.550000000000007
    vertex 140.8630036137808 -9.698253455327572 7.35000000000001
    vertex 140.78785240039645 -9.72105032667677 7.35000000000001
  endloop
endfacet
facet normal 0.16289547339464935 -0.9866433320848692 7.849747163236195e-17
  outer loop
    vertex 140.71137110480575 -9.738883263653728 7.35000000000001
    vertex 140.63388723165804 -9.751675902884534 4.550000000000007
    vertex 140.71137110480575 -9.738883263653728 4.550000000000007
  endloop
endfacet
facet normal 0.16289547339464935 -0.9866433320848692 7.849747163236195e-17
  outer loop
    vertex 140.63388723165804 -9.751675902884534 4.550000000000007
    vertex 140.71137110480575 -9.738883263653728 7.35000000000001
    vertex 140.63388723165804 -9.751675902884534 7.35000000000001
  endloop
endfacet
facet normal 0.22707626303437828 0.9738769792773325 -5.1636227262220425e-17
  outer loop
    vertex 140.71137110480575 10.935211571726459 7.35000000000001
    vertex 140.78785240039645 10.917378634749497 4.550000000000005
    vertex 140.71137110480575 10.935211571726459 4.550000000000005
  endloop
endfacet
facet normal 0.22707626303437828 0.9738769792773325 -5.1636227262220425e-17
  outer loop
    vertex 140.78785240039645 10.917378634749497 4.550000000000005
    vertex 140.71137110480575 10.935211571726459 7.35000000000001
    vertex 140.78785240039645 10.917378634749497 7.35000000000001
  endloop
endfacet
facet normal 0.03271908282181068 0.9994645874763646 -6.634158438892602e-17
  outer loop
    vertex 140.48051460086194 10.958164154036366 7.35000000000001
    vertex 140.55573257879374 10.955701772396758 4.550000000000005
    vertex 140.48051460086194 10.958164154036366 4.550000000000005
  endloop
endfacet
facet normal 0.03271908282181068 0.9994645874763646 -6.634158438892602e-17
  outer loop
    vertex 140.55573257879374 10.955701772396758 4.550000000000005
    vertex 140.48051460086194 10.958164154036366 7.35000000000001
    vertex 140.55573257879374 10.955701772396758 7.35000000000001
  endloop
endfacet
facet normal 0.5280678506502926 0.849202181526626 -2.3031948337236573e-17
  outer loop
    vertex 141.07729538636926 10.797487424425798 7.35000000000001
    vertex 141.14398561978024 10.756016772344573 4.550000000000005
    vertex 141.07729538636926 10.797487424425798 4.550000000000005
  endloop
endfacet
facet normal 0.5280678506502926 0.849202181526626 -2.3031948337236573e-17
  outer loop
    vertex 141.14398561978024 10.756016772344573 4.550000000000005
    vertex 141.07729538636926 10.797487424425798 7.35000000000001
    vertex 141.14398561978024 10.756016772344573 7.35000000000001
  endloop
endfacet
facet normal 0.16289547339457083 0.986643332084882 -5.678819547672287e-17
  outer loop
    vertex 140.63388723165806 10.948004210957258 7.35000000000001
    vertex 140.71137110480575 10.935211571726459 4.550000000000005
    vertex 140.63388723165806 10.948004210957258 4.550000000000005
  endloop
endfacet
facet normal 0.16289547339457083 0.986643332084882 -5.678819547672287e-17
  outer loop
    vertex 140.71137110480575 10.935211571726459 4.550000000000005
    vertex 140.63388723165806 10.948004210957258 7.35000000000001
    vertex 140.71137110480575 10.935211571726459 7.35000000000001
  endloop
endfacet
facet normal 0.5824776968678228 0.8128466845916004 -1.691383537497331e-17
  outer loop
    vertex 141.14398561978024 10.756016772344573 7.35000000000001
    vertex 141.207820753865 10.710273162158582 4.550000000000005
    vertex 141.14398561978024 10.756016772344573 4.550000000000005
  endloop
endfacet
facet normal 0.5824776968678228 0.8128466845916004 -1.691383537497331e-17
  outer loop
    vertex 141.207820753865 10.710273162158582 4.550000000000005
    vertex 141.14398561978024 10.756016772344573 7.35000000000001
    vertex 141.207820753865 10.710273162158582 7.35000000000001
  endloop
endfacet
facet normal 0.9866433320849095 -0.1628954733944042 7.691345028984767e-17
  outer loop
    vertex 141.66708187335578 -8.718481261186794 4.550000000000007
    vertex 141.654289234125 -8.795965134334475 7.35000000000001
    vertex 141.654289234125 -8.795965134334475 4.550000000000007
  endloop
endfacet
facet normal 0.9866433320849095 -0.1628954733944042 7.691345028984767e-17
  outer loop
    vertex 141.654289234125 -8.795965134334475 7.35000000000001
    vertex 141.66708187335578 -8.718481261186794 4.550000000000007
    vertex 141.66708187335578 -8.718481261186794 7.35000000000001
  endloop
endfacet
facet normal 0.8128466845916026 0.5824776968678198 1.4230704151474203e-17
  outer loop
    vertex 141.42935082455716 10.4887430914664 4.550000000000005
    vertex 141.47509443474308 10.424907957381752 7.35000000000001
    vertex 141.47509443474308 10.424907957381752 4.550000000000005
  endloop
endfacet
facet normal 0.8128466845916026 0.5824776968678198 1.4230704151474203e-17
  outer loop
    vertex 141.47509443474308 10.424907957381752 7.35000000000001
    vertex 141.42935082455716 10.4887430914664 4.550000000000005
    vertex 141.42935082455716 10.4887430914664 7.35000000000001
  endloop
endfacet
facet normal 0.6343932841636107 0.7730104533627655 -1.0723294772992479e-17
  outer loop
    vertex 141.207820753865 10.710273162158582 7.35000000000001
    vertex 141.2685274367791 10.660452475029425 4.550000000000005
    vertex 141.207820753865 10.710273162158582 4.550000000000005
  endloop
endfacet
facet normal 0.6343932841636107 0.7730104533627655 -1.0723294772992479e-17
  outer loop
    vertex 141.2685274367791 10.660452475029425 4.550000000000005
    vertex 141.207820753865 10.710273162158582 7.35000000000001
    vertex 141.2685274367791 10.660452475029425 7.35000000000001
  endloop
endfacet
facet normal 0.41270702980431334 0.9108638249212129 -3.494651887976396e-17
  outer loop
    vertex 140.93650293592572 10.866918577381758 7.35000000000001
    vertex 141.00803563144993 10.834507534703393 4.550000000000005
    vertex 140.93650293592572 10.866918577381758 4.550000000000005
  endloop
endfacet
facet normal 0.41270702980431334 0.9108638249212129 -3.494651887976396e-17
  outer loop
    vertex 141.00803563144993 10.834507534703393 4.550000000000005
    vertex 140.93650293592572 10.866918577381758 7.35000000000001
    vertex 141.00803563144993 10.834507534703393 7.35000000000001
  endloop
endfacet
facet normal 0.7730104533627493 0.6343932841636307 8.01693561923027e-18
  outer loop
    vertex 141.37953013742796 10.549449774380552 4.550000000000005
    vertex 141.42935082455716 10.4887430914664 7.35000000000001
    vertex 141.42935082455716 10.4887430914664 4.550000000000005
  endloop
endfacet
facet normal 0.7730104533627493 0.6343932841636307 8.01693561923027e-18
  outer loop
    vertex 141.42935082455716 10.4887430914664 7.35000000000001
    vertex 141.37953013742796 10.549449774380552 4.550000000000005
    vertex 141.37953013742796 10.549449774380552 7.35000000000001
  endloop
endfacet
facet normal 0.09801714032955139 0.9951847266721979 -6.16969879199091e-17
  outer loop
    vertex 140.55573257879374 10.955701772396758 7.35000000000001
    vertex 140.63388723165806 10.948004210957258 4.550000000000005
    vertex 140.55573257879374 10.955701772396758 4.550000000000005
  endloop
endfacet
facet normal 0.09801714032955139 0.9951847266721979 -6.16969879199091e-17
  outer loop
    vertex 140.63388723165806 10.948004210957258 4.550000000000005
    vertex 140.55573257879374 10.955701772396758 7.35000000000001
    vertex 140.63388723165806 10.948004210957258 7.35000000000001
  endloop
endfacet
facet normal 0.9951847266721775 0.09801714032975746 5.959482149757943e-17
  outer loop
    vertex 141.66708187335578 9.914809569259521 4.550000000000005
    vertex 141.67477943479528 9.83665491639526 7.35000000000001
    vertex 141.67477943479528 9.83665491639526 4.550000000000005
  endloop
endfacet
facet normal 0.9951847266721775 0.09801714032975746 5.959482149757943e-17
  outer loop
    vertex 141.67477943479528 9.83665491639526 7.35000000000001
    vertex 141.66708187335578 9.914809569259521 4.550000000000005
    vertex 141.66708187335578 9.914809569259521 7.35000000000001
  endloop
endfacet
facet normal 0.634393284163617 -0.7730104533627604 9.526965269313163e-17
  outer loop
    vertex 141.26852743677907 -9.464124166956717 7.35000000000001
    vertex 141.20782075386498 -9.513944854085867 4.550000000000007
    vertex 141.26852743677907 -9.464124166956717 4.550000000000007
  endloop
endfacet
facet normal 0.634393284163617 -0.7730104533627604 9.526965269313163e-17
  outer loop
    vertex 141.20782075386498 -9.513944854085867 4.550000000000007
    vertex 141.26852743677907 -9.464124166956717 7.35000000000001
    vertex 141.20782075386498 -9.513944854085867 7.35000000000001
  endloop
endfacet
facet normal 0.3522500479212518 -0.935905926757319 8.763674506284725e-17
  outer loop
    vertex 140.93650293592572 -9.670590269309043 7.35000000000001
    vertex 140.8630036137808 -9.698253455327572 4.550000000000007
    vertex 140.93650293592572 -9.670590269309043 4.550000000000007
  endloop
endfacet
facet normal 0.3522500479212518 -0.935905926757319 8.763674506284725e-17
  outer loop
    vertex 140.8630036137808 -9.698253455327572 4.550000000000007
    vertex 140.93650293592572 -9.670590269309043 7.35000000000001
    vertex 140.8630036137808 -9.698253455327572 7.35000000000001
  endloop
endfacet
facet normal 0.9108638249211574 -0.41270702980443547 8.899055455035645e-17
  outer loop
    vertex 141.5859962397803 -9.021096965454488 4.550000000000007
    vertex 141.55358519710197 -9.092629660978638 7.35000000000001
    vertex 141.55358519710197 -9.092629660978638 4.550000000000007
  endloop
endfacet
facet normal 0.9108638249211574 -0.41270702980443547 8.899055455035645e-17
  outer loop
    vertex 141.55358519710197 -9.092629660978638 7.35000000000001
    vertex 141.5859962397803 -9.021096965454488 4.550000000000007
    vertex 141.5859962397803 -9.021096965454488 7.35000000000001
  endloop
endfacet
facet normal 0.0 -1.0 6.855854730361758e-17
  outer loop
    vertex 143.1772418164349 -8.27001780703129 7.35000000000001
    vertex 141.68690208975568 -8.27001780703129 4.550000000000007
    vertex 143.1772418164349 -8.27001780703129 4.550000000000007
  endloop
endfacet
facet normal 0.0 -1.0 6.855854730361758e-17
  outer loop
    vertex 141.68690208975568 -8.27001780703129 4.550000000000007
    vertex 143.1772418164349 -8.27001780703129 7.35000000000001
    vertex 141.68690208975568 -8.27001780703129 7.35000000000001
  endloop
endfacet
facet normal 0.8819212643483366 -0.471396736826032 9.108563063246079e-17
  outer loop
    vertex 141.55358519710197 -9.092629660978638 4.550000000000007
    vertex 141.51656508682433 -9.16188941589799 7.35000000000001
    vertex 141.51656508682433 -9.16188941589799 4.550000000000007
  endloop
endfacet
facet normal 0.8819212643483366 -0.471396736826032 9.108563063246079e-17
  outer loop
    vertex 141.51656508682433 -9.16188941589799 7.35000000000001
    vertex 141.55358519710197 -9.092629660978638 4.550000000000007
    vertex 141.55358519710197 -9.092629660978638 7.35000000000001
  endloop
endfacet
facet normal 0.9738769792773248 -0.22707626303441134 8.046289837631652e-17
  outer loop
    vertex 141.654289234125 -8.795965134334475 4.550000000000007
    vertex 141.63645629714804 -8.872446429925171 7.35000000000001
    vertex 141.63645629714804 -8.872446429925171 4.550000000000007
  endloop
endfacet
facet normal 0.9738769792773248 -0.22707626303441134 8.046289837631652e-17
  outer loop
    vertex 141.63645629714804 -8.872446429925171 7.35000000000001
    vertex 141.654289234125 -8.795965134334475 4.550000000000007
    vertex 141.654289234125 -8.795965134334475 7.35000000000001
  endloop
endfacet
facet normal 0.9359059267573023 0.3522500479212961 3.8214904105362296e-17
  outer loop
    vertex 141.5859962397803 10.217425273527219 4.550000000000005
    vertex 141.61365942579883 10.143925951382293 7.35000000000001
    vertex 141.61365942579883 10.143925951382293 4.550000000000005
  endloop
endfacet
facet normal 0.9359059267573023 0.3522500479212961 3.8214904105362296e-17
  outer loop
    vertex 141.61365942579883 10.143925951382293 7.35000000000001
    vertex 141.5859962397803 10.217425273527219 4.550000000000005
    vertex 141.5859962397803 10.217425273527219 7.35000000000001
  endloop
endfacet
facet normal 0.973876979277326 0.22707626303440667 4.932686093477013e-17
  outer loop
    vertex 141.63645629714804 10.06877473799789 4.550000000000005
    vertex 141.654289234125 9.992293442407219 7.35000000000001
    vertex 141.654289234125 9.992293442407219 4.550000000000005
  endloop
endfacet
facet normal 0.973876979277326 0.22707626303440667 4.932686093477013e-17
  outer loop
    vertex 141.654289234125 9.992293442407219 7.35000000000001
    vertex 141.63645629714804 10.06877473799789 4.550000000000005
    vertex 141.63645629714804 10.06877473799789 7.35000000000001
  endloop
endfacet
facet normal 0.773010453362636 -0.6343932841637688 9.500309958209136e-17
  outer loop
    vertex 141.42935082455716 -9.292414783393717 4.550000000000007
    vertex 141.379530137428 -9.353121466307801 7.35000000000001
    vertex 141.379530137428 -9.353121466307801 4.550000000000007
  endloop
endfacet
facet normal 0.773010453362636 -0.6343932841637688 9.500309958209136e-17
  outer loop
    vertex 141.379530137428 -9.353121466307801 7.35000000000001
    vertex 141.42935082455716 -9.292414783393717 4.550000000000007
    vertex 141.42935082455716 -9.292414783393717 7.35000000000001
  endloop
endfacet
facet normal 0.9569403357322303 -0.2902846772543924 8.366779197903105e-17
  outer loop
    vertex 141.63645629714804 -8.872446429925171 4.550000000000007
    vertex 141.61365942579883 -8.94759764330955 7.35000000000001
    vertex 141.61365942579883 -8.94759764330955 4.550000000000007
  endloop
endfacet
facet normal 0.9569403357322303 -0.2902846772543924 8.366779197903105e-17
  outer loop
    vertex 141.61365942579883 -8.94759764330955 7.35000000000001
    vertex 141.63645629714804 -8.872446429925171 4.550000000000007
    vertex 141.63645629714804 -8.872446429925171 7.35000000000001
  endloop
endfacet
facet normal 0.9108638249211535 0.4127070298044441 3.240136569958982e-17
  outer loop
    vertex 141.55358519710194 10.288957969051388 4.550000000000005
    vertex 141.5859962397803 10.217425273527219 7.35000000000001
    vertex 141.5859962397803 10.217425273527219 4.550000000000005
  endloop
endfacet
facet normal 0.9108638249211535 0.4127070298044441 3.240136569958982e-17
  outer loop
    vertex 141.5859962397803 10.217425273527219 7.35000000000001
    vertex 141.55358519710194 10.288957969051388 4.550000000000005
    vertex 141.55358519710194 10.288957969051388 7.35000000000001
  endloop
endfacet
facet normal 0.09801714032952102 -0.9951847266722008 7.475985039887628e-17
  outer loop
    vertex 140.63388723165804 -9.751675902884534 7.35000000000001
    vertex 140.55573257879377 -9.759373464324028 4.550000000000007
    vertex 140.63388723165804 -9.751675902884534 4.550000000000007
  endloop
endfacet
facet normal 0.09801714032952102 -0.9951847266722008 7.475985039887628e-17
  outer loop
    vertex 140.55573257879377 -9.759373464324028 4.550000000000007
    vertex 140.63388723165804 -9.751675902884534 7.35000000000001
    vertex 140.55573257879377 -9.759373464324028 7.35000000000001
  endloop
endfacet
facet normal 0.5824776968677962 -0.8128466845916196 9.454134037735011e-17
  outer loop
    vertex 141.20782075386498 -9.513944854085867 7.35000000000001
    vertex 141.1439856197803 -9.559688464271819 4.550000000000007
    vertex 141.20782075386498 -9.513944854085867 4.550000000000007
  endloop
endfacet
facet normal 0.5824776968677962 -0.8128466845916196 9.454134037735011e-17
  outer loop
    vertex 141.1439856197803 -9.559688464271819 4.550000000000007
    vertex 141.20782075386498 -9.513944854085867 7.35000000000001
    vertex 141.1439856197803 -9.559688464271819 7.35000000000001
  endloop
endfacet
facet normal 7.169354978423009e-17 -6.056119909851882e-17 -1.0
  outer loop
    vertex 135.47724181643434 12.958164154036368 4.550000000000005
    vertex 130.47724181643434 10.958164154036366 4.550000000000005
    vertex 130.47724181643434 12.958164154036368 4.550000000000005
  endloop
endfacet
facet normal 7.169354978423009e-17 -6.056119909851882e-17 -1.0
  outer loop
    vertex 130.47724181643434 10.958164154036366 4.550000000000005
    vertex 135.47724181643434 12.958164154036368 4.550000000000005
    vertex 130.90724181643492 -4.232289962760612 4.550000000000004
  endloop
endfacet
facet normal 7.169354978423009e-17 -6.056119909851882e-17 -1.0
  outer loop
    vertex 130.90724181643492 -4.232289962760612 4.550000000000004
    vertex 135.47724181643434 12.958164154036368 4.550000000000005
    vertex 130.90724181643492 -5.84228996276061 4.550000000000004
  endloop
endfacet
facet normal 7.169354978423009e-17 -6.056119909851882e-17 -1.0
  outer loop
    vertex 125.97724181643436 -9.761835845963624 4.550000000000005
    vertex 126.09724181643489 -5.84228996276061 4.5500000000000105
    vertex 140.48051460086316 -9.761835845963594 4.550000000000007
  endloop
endfacet
facet normal 7.169354978423009e-17 -6.056119909851882e-17 -1.0
  outer loop
    vertex 126.09724181643489 -5.84228996276061 4.5500000000000105
    vertex 125.97724181643436 -9.761835845963624 4.550000000000005
    vertex 126.09724181643489 -4.232289962760607 4.5500000000000105
  endloop
endfacet
facet normal 7.169354978423009e-17 -6.056119909851882e-17 -1.0
  outer loop
    vertex 140.48051460086316 -9.761835845963594 4.550000000000007
    vertex 126.09724181643489 -5.84228996276061 4.5500000000000105
    vertex 130.90724181643492 -5.84228996276061 4.550000000000004
  endloop
endfacet
facet normal 7.169354978423009e-17 -6.056119909851882e-17 -1.0
  outer loop
    vertex 140.48051460086316 -9.761835845963594 4.550000000000007
    vertex 130.90724181643492 -5.84228996276061 4.550000000000004
    vertex 135.47724181643434 10.958164154036366 4.550000000000005
  endloop
endfacet
facet normal 7.169354978423009e-17 -6.056119909851882e-17 -1.0
  outer loop
    vertex 135.47724181643434 10.958164154036366 4.550000000000005
    vertex 130.90724181643492 -5.84228996276061 4.550000000000004
    vertex 135.47724181643434 12.958164154036368 4.550000000000005
  endloop
endfacet
facet normal 7.169354978423009e-17 -6.056119909851882e-17 -1.0
  outer loop
    vertex 140.48051460086316 -9.761835845963594 4.550000000000007
    vertex 135.47724181643434 10.958164154036366 4.550000000000005
    vertex 140.48051460086194 10.958164154036366 4.550000000000005
  endloop
endfacet
facet normal 7.169354978423009e-17 -6.056119909851882e-17 -1.0
  outer loop
    vertex 140.48051460086316 -9.761835845963594 4.550000000000007
    vertex 140.48051460086194 10.958164154036366 4.550000000000005
    vertex 140.55573257879374 10.955701772396758 4.550000000000005
  endloop
endfacet
facet normal 7.169354978423009e-17 -6.056119909851882e-17 -1.0
  outer loop
    vertex 140.48051460086316 -9.761835845963594 4.550000000000007
    vertex 140.55573257879374 10.955701772396758 4.550000000000005
    vertex 140.55573257879377 -9.759373464324028 4.550000000000007
  endloop
endfacet
facet normal 7.169354978423009e-17 -6.056119909851882e-17 -1.0
  outer loop
    vertex 140.55573257879377 -9.759373464324028 4.550000000000007
    vertex 140.55573257879374 10.955701772396758 4.550000000000005
    vertex 140.63388723165806 10.948004210957258 4.550000000000005
  endloop
endfacet
facet normal 7.169354978423009e-17 -6.056119909851882e-17 -1.0
  outer loop
    vertex 140.55573257879377 -9.759373464324028 4.550000000000007
    vertex 140.63388723165806 10.948004210957258 4.550000000000005
    vertex 140.63388723165804 -9.751675902884534 4.550000000000007
  endloop
endfacet
facet normal 7.169354978423009e-17 -6.056119909851882e-17 -1.0
  outer loop
    vertex 140.63388723165804 -9.751675902884534 4.550000000000007
    vertex 140.63388723165806 10.948004210957258 4.550000000000005
    vertex 140.71137110480575 -9.738883263653728 4.550000000000007
  endloop
endfacet
facet normal 7.169354978423009e-17 -6.056119909851882e-17 -1.0
  outer loop
    vertex 140.71137110480575 -9.738883263653728 4.550000000000007
    vertex 140.63388723165806 10.948004210957258 4.550000000000005
    vertex 140.71137110480575 10.935211571726459 4.550000000000005
  endloop
endfacet
facet normal 7.169354978423009e-17 -6.056119909851882e-17 -1.0
  outer loop
    vertex 140.71137110480575 -9.738883263653728 4.550000000000007
    vertex 140.71137110480575 10.935211571726459 4.550000000000005
    vertex 140.78785240039645 10.917378634749497 4.550000000000005
  endloop
endfacet
facet normal 7.169354978423009e-17 -6.056119909851882e-17 -1.0
  outer loop
    vertex 140.71137110480575 -9.738883263653728 4.550000000000007
    vertex 140.78785240039645 10.917378634749497 4.550000000000005
    vertex 140.78785240039645 -9.72105032667677 4.550000000000007
  endloop
endfacet
facet normal 7.169354978423009e-17 -6.056119909851882e-17 -1.0
  outer loop
    vertex 140.78785240039645 -9.72105032667677 4.550000000000007
    vertex 140.78785240039645 10.917378634749497 4.550000000000005
    vertex 140.86300361378085 10.894581763400287 4.550000000000005
  endloop
endfacet
facet normal 7.169354978423009e-17 -6.056119909851882e-17 -1.0
  outer loop
    vertex 140.78785240039645 -9.72105032667677 4.550000000000007
    vertex 140.86300361378085 10.894581763400287 4.550000000000005
    vertex 140.8630036137808 -9.698253455327572 4.550000000000007
  endloop
endfacet
facet normal 7.169354978423009e-17 -6.056119909851882e-17 -1.0
  outer loop
    vertex 140.8630036137808 -9.698253455327572 4.550000000000007
    vertex 140.86300361378085 10.894581763400287 4.550000000000005
    vertex 140.93650293592572 -9.670590269309043 4.550000000000007
  endloop
endfacet
facet normal 7.169354978423009e-17 -6.056119909851882e-17 -1.0
  outer loop
    vertex 140.93650293592572 -9.670590269309043 4.550000000000007
    vertex 140.86300361378085 10.894581763400287 4.550000000000005
    vertex 140.93650293592572 10.866918577381758 4.550000000000005
  endloop
endfacet
facet normal 7.169354978423009e-17 -6.056119909851882e-17 -1.0
  outer loop
    vertex 140.93650293592572 -9.670590269309043 4.550000000000007
    vertex 140.93650293592572 10.866918577381758 4.550000000000005
    vertex 141.00803563144993 10.834507534703393 4.550000000000005
  endloop
endfacet
facet normal 7.169354978423009e-17 -6.056119909851882e-17 -1.0
  outer loop
    vertex 140.93650293592572 -9.670590269309043 4.550000000000007
    vertex 141.00803563144993 10.834507534703393 4.550000000000005
    vertex 141.00803563144993 -9.638179226630687 4.550000000000007
  endloop
endfacet
facet normal 7.169354978423009e-17 -6.056119909851882e-17 -1.0
  outer loop
    vertex 141.00803563144993 -9.638179226630687 4.550000000000007
    vertex 141.00803563144993 10.834507534703393 4.550000000000005
    vertex 141.0772953863693 -9.601159116353065 4.550000000000007
  endloop
endfacet
facet normal 7.169354978423009e-17 -6.056119909851882e-17 -1.0
  outer loop
    vertex 141.0772953863693 -9.601159116353065 4.550000000000007
    vertex 141.00803563144993 10.834507534703393 4.550000000000005
    vertex 141.07729538636926 10.797487424425798 4.550000000000005
  endloop
endfacet
facet normal 7.169354978423009e-17 -6.056119909851882e-17 -1.0
  outer loop
    vertex 141.0772953863693 -9.601159116353065 4.550000000000007
    vertex 141.07729538636926 10.797487424425798 4.550000000000005
    vertex 141.14398561978024 10.756016772344573 4.550000000000005
  endloop
endfacet
facet normal 7.169354978423009e-17 -6.056119909851882e-17 -1.0
  outer loop
    vertex 141.0772953863693 -9.601159116353065 4.550000000000007
    vertex 141.14398561978024 10.756016772344573 4.550000000000005
    vertex 141.1439856197803 -9.559688464271819 4.550000000000007
  endloop
endfacet
facet normal 7.169354978423009e-17 -6.056119909851882e-17 -1.0
  outer loop
    vertex 141.1439856197803 -9.559688464271819 4.550000000000007
    vertex 141.14398561978024 10.756016772344573 4.550000000000005
    vertex 141.207820753865 10.710273162158582 4.550000000000005
  endloop
endfacet
facet normal 7.169354978423009e-17 -6.056119909851882e-17 -1.0
  outer loop
    vertex 141.1439856197803 -9.559688464271819 4.550000000000007
    vertex 141.207820753865 10.710273162158582 4.550000000000005
    vertex 141.20782075386498 -9.513944854085867 4.550000000000007
  endloop
endfacet
facet normal 7.169354978423009e-17 -6.056119909851882e-17 -1.0
  outer loop
    vertex 141.20782075386498 -9.513944854085867 4.550000000000007
    vertex 141.207820753865 10.710273162158582 4.550000000000005
    vertex 141.26852743677907 -9.464124166956717 4.550000000000007
  endloop
endfacet
facet normal 7.169354978423009e-17 -6.056119909851882e-17 -1.0
  outer loop
    vertex 141.26852743677907 -9.464124166956717 4.550000000000007
    vertex 141.207820753865 10.710273162158582 4.550000000000005
    vertex 141.2685274367791 10.660452475029425 4.550000000000005
  endloop
endfacet
facet normal 7.169354978423009e-17 -6.056119909851882e-17 -1.0
  outer loop
    vertex 141.26852743677907 -9.464124166956717 4.550000000000007
    vertex 141.2685274367791 10.660452475029425 4.550000000000005
    vertex 141.32584571318645 -9.410439742715239 4.550000000000007
  endloop
endfacet
facet normal 7.169354978423009e-17 -6.056119909851882e-17 -1.0
  outer loop
    vertex 141.32584571318645 -9.410439742715239 4.550000000000007
    vertex 141.2685274367791 10.660452475029425 4.550000000000005
    vertex 141.32584571318645 10.60676805078799 4.550000000000005
  endloop
endfacet
facet normal 7.169354978423009e-17 -6.056119909851882e-17 -1.0
  outer loop
    vertex 141.32584571318645 -9.410439742715239 4.550000000000007
    vertex 141.32584571318645 10.60676805078799 4.550000000000005
    vertex 141.37953013742796 10.549449774380552 4.550000000000005
  endloop
endfacet
facet normal 7.169354978423009e-17 -6.056119909851882e-17 -1.0
  outer loop
    vertex 141.32584571318645 -9.410439742715239 4.550000000000007
    vertex 141.37953013742796 10.549449774380552 4.550000000000005
    vertex 141.379530137428 -9.353121466307801 4.550000000000007
  endloop
endfacet
facet normal 7.169354978423009e-17 -6.056119909851882e-17 -1.0
  outer loop
    vertex 141.379530137428 -9.353121466307801 4.550000000000007
    vertex 141.37953013742796 10.549449774380552 4.550000000000005
    vertex 141.42935082455716 10.4887430914664 4.550000000000005
  endloop
endfacet
facet normal 7.169354978423009e-17 -6.056119909851882e-17 -1.0
  outer loop
    vertex 141.379530137428 -9.353121466307801 4.550000000000007
    vertex 141.42935082455716 10.4887430914664 4.550000000000005
    vertex 141.42935082455716 -9.292414783393717 4.550000000000007
  endloop
endfacet
facet normal 7.169354978423009e-17 -6.056119909851882e-17 -1.0
  outer loop
    vertex 141.42935082455716 -9.292414783393717 4.550000000000007
    vertex 141.42935082455716 10.4887430914664 4.550000000000005
    vertex 141.47509443474308 -9.22857964930902 4.550000000000007
  endloop
endfacet
facet normal 7.169354978423009e-17 -6.056119909851882e-17 -1.0
  outer loop
    vertex 141.47509443474308 -9.22857964930902 4.550000000000007
    vertex 141.42935082455716 10.4887430914664 4.550000000000005
    vertex 141.47509443474308 10.424907957381752 4.550000000000005
  endloop
endfacet
facet normal 7.169354978423009e-17 -6.056119909851882e-17 -1.0
  outer loop
    vertex 141.47509443474308 -9.22857964930902 4.550000000000007
    vertex 141.47509443474308 10.424907957381752 4.550000000000005
    vertex 141.51656508682433 10.358217723970702 4.550000000000005
  endloop
endfacet
facet normal 7.169354978423009e-17 -6.056119909851882e-17 -1.0
  outer loop
    vertex 141.47509443474308 -9.22857964930902 4.550000000000007
    vertex 141.51656508682433 10.358217723970702 4.550000000000005
    vertex 141.51656508682433 -9.16188941589799 4.550000000000007
  endloop
endfacet
facet normal 7.169354978423009e-17 -6.056119909851882e-17 -1.0
  outer loop
    vertex 141.51656508682433 -9.16188941589799 4.550000000000007
    vertex 141.51656508682433 10.358217723970702 4.550000000000005
    vertex 141.55358519710194 10.288957969051388 4.550000000000005
  endloop
endfacet
facet normal 7.169354978423009e-17 -6.056119909851882e-17 -1.0
  outer loop
    vertex 141.51656508682433 -9.16188941589799 4.550000000000007
    vertex 141.55358519710194 10.288957969051388 4.550000000000005
    vertex 141.55358519710197 -9.092629660978638 4.550000000000007
  endloop
endfacet
facet normal 7.169354978423009e-17 -6.056119909851882e-17 -1.0
  outer loop
    vertex 141.55358519710197 -9.092629660978638 4.550000000000007
    vertex 141.55358519710194 10.288957969051388 4.550000000000005
    vertex 141.5859962397803 10.217425273527219 4.550000000000005
  endloop
endfacet
facet normal 7.169354978423009e-17 -6.056119909851882e-17 -1.0
  outer loop
    vertex 141.55358519710197 -9.092629660978638 4.550000000000007
    vertex 141.5859962397803 10.217425273527219 4.550000000000005
    vertex 141.5859962397803 -9.021096965454488 4.550000000000007
  endloop
endfacet
facet normal 7.169354978423009e-17 -6.056119909851882e-17 -1.0
  outer loop
    vertex 141.5859962397803 -9.021096965454488 4.550000000000007
    vertex 141.5859962397803 10.217425273527219 4.550000000000005
    vertex 141.61365942579883 10.143925951382293 4.550000000000005
  endloop
endfacet
facet normal 7.169354978423009e-17 -6.056119909851882e-17 -1.0
  outer loop
    vertex 141.5859962397803 -9.021096965454488 4.550000000000007
    vertex 141.61365942579883 10.143925951382293 4.550000000000005
    vertex 141.61365942579883 -8.94759764330955 4.550000000000007
  endloop
endfacet
facet normal 7.169354978423009e-17 -6.056119909851882e-17 -1.0
  outer loop
    vertex 141.61365942579883 -8.94759764330955 4.550000000000007
    vertex 141.61365942579883 10.143925951382293 4.550000000000005
    vertex 141.63645629714804 10.06877473799789 4.550000000000005
  endloop
endfacet
facet normal 7.169354978423009e-17 -6.056119909851882e-17 -1.0
  outer loop
    vertex 141.61365942579883 -8.94759764330955 4.550000000000007
    vertex 141.63645629714804 10.06877473799789 4.550000000000005
    vertex 141.63645629714804 -8.872446429925171 4.550000000000007
  endloop
endfacet
facet normal 7.169354978423009e-17 -6.056119909851882e-17 -1.0
  outer loop
    vertex 141.63645629714804 -8.872446429925171 4.550000000000007
    vertex 141.63645629714804 10.06877473799789 4.550000000000005
    vertex 141.654289234125 9.992293442407219 4.550000000000005
  endloop
endfacet
facet normal 7.169354978423009e-17 -6.056119909851882e-17 -1.0
  outer loop
    vertex 141.63645629714804 -8.872446429925171 4.550000000000007
    vertex 141.654289234125 9.992293442407219 4.550000000000005
    vertex 141.654289234125 -8.795965134334475 4.550000000000007
  endloop
endfacet
facet normal 7.169354978423009e-17 -6.056119909851882e-17 -1.0
  outer loop
    vertex 141.654289234125 -8.795965134334475 4.550000000000007
    vertex 141.654289234125 9.992293442407219 4.550000000000005
    vertex 141.66708187335578 9.914809569259521 4.550000000000005
  endloop
endfacet
facet normal 7.169354978423009e-17 -6.056119909851882e-17 -1.0
  outer loop
    vertex 141.654289234125 -8.795965134334475 4.550000000000007
    vertex 141.66708187335578 9.914809569259521 4.550000000000005
    vertex 141.66708187335578 -8.718481261186794 4.550000000000007
  endloop
endfacet
facet normal 7.169354978423009e-17 -6.056119909851882e-17 -1.0
  outer loop
    vertex 141.66708187335578 -8.718481261186794 4.550000000000007
    vertex 141.66708187335578 9.914809569259521 4.550000000000005
    vertex 141.67477943479528 9.83665491639526 4.550000000000005
  endloop
endfacet
facet normal 7.169354978423009e-17 -6.056119909851882e-17 -1.0
  outer loop
    vertex 141.66708187335578 -8.718481261186794 4.550000000000007
    vertex 141.67477943479528 9.83665491639526 4.550000000000005
    vertex 141.67477943479528 -8.640326608322527 4.550000000000007
  endloop
endfacet
facet normal 7.169354978423009e-17 -6.056119909851882e-17 -1.0
  outer loop
    vertex 141.67477943479528 -8.640326608322527 4.550000000000007
    vertex 141.67477943479528 9.83665491639526 4.550000000000005
    vertex 141.68690208975562 9.466346115104987 4.550000000000005
  endloop
endfacet
facet normal 7.169354978423009e-17 -6.056119909851882e-17 -1.0
  outer loop
    vertex 141.67477943479528 -8.640326608322527 4.550000000000007
    vertex 141.68690208975562 9.466346115104987 4.550000000000005
    vertex 141.68690208975568 -8.27001780703129 4.550000000000007
  endloop
endfacet
facet normal 7.169354978423009e-17 -6.056119909851882e-17 -1.0
  outer loop
    vertex 141.68690208975568 -8.27001780703129 4.550000000000007
    vertex 141.68690208975562 9.466346115104987 4.550000000000005
    vertex 143.17724181643496 9.466346115104994 4.550000000000005
  endloop
endfacet
facet normal 7.169354978423009e-17 -6.056119909851882e-17 -1.0
  outer loop
    vertex 141.68690208975568 -8.27001780703129 4.550000000000007
    vertex 143.17724181643496 9.466346115104994 4.550000000000005
    vertex 143.1772418164349 -8.27001780703129 4.550000000000007
  endloop
endfacet
facet normal 7.169354978423009e-17 -6.056119909851882e-17 -1.0
  outer loop
    vertex 110.47724181643434 10.958164154036366 4.5500000000000025
    vertex 109.61724181643488 -9.761835845963645 4.550000000000004
    vertex 109.61724181643488 10.958164154036366 4.550000000000004
  endloop
endfacet
facet normal 7.169354978423009e-17 -6.056119909851882e-17 -1.0
  outer loop
    vertex 109.61724181643488 -9.761835845963645 4.550000000000004
    vertex 110.47724181643434 10.958164154036366 4.5500000000000025
    vertex 119.97724181643436 -9.761835845963635 4.550000000000005
  endloop
endfacet
facet normal 7.169354978423009e-17 -6.056119909851882e-17 -1.0
  outer loop
    vertex 119.97724181643436 -9.761835845963635 4.550000000000005
    vertex 110.47724181643434 10.958164154036366 4.5500000000000025
    vertex 115.47724181643434 10.958164154036366 4.550000000000003
  endloop
endfacet
facet normal 7.169354978423009e-17 -6.056119909851882e-17 -1.0
  outer loop
    vertex 115.47724181643434 10.958164154036366 4.550000000000003
    vertex 110.47724181643434 10.958164154036366 4.5500000000000025
    vertex 115.47724181643434 12.958164154036368 4.550000000000005
  endloop
endfacet
facet normal 7.169354978423009e-17 -6.056119909851882e-17 -1.0
  outer loop
    vertex 119.97724181643436 -9.761835845963635 4.550000000000005
    vertex 115.47724181643434 10.958164154036366 4.550000000000003
    vertex 130.47724181643434 10.958164154036366 4.550000000000005
  endloop
endfacet
facet normal 7.169354978423009e-17 -6.056119909851882e-17 -1.0
  outer loop
    vertex 119.97724181643436 -9.761835845963635 4.550000000000005
    vertex 130.47724181643434 10.958164154036366 4.550000000000005
    vertex 119.97724181643436 -10.961835845963627 4.550000000000005
  endloop
endfacet
facet normal 7.169354978423009e-17 -6.056119909851882e-17 -1.0
  outer loop
    vertex 119.97724181643436 -10.961835845963627 4.550000000000005
    vertex 130.47724181643434 10.958164154036366 4.550000000000005
    vertex 126.09724181643489 -4.232289962760607 4.5500000000000105
  endloop
endfacet
facet normal 7.169354978423009e-17 -6.056119909851882e-17 -1.0
  outer loop
    vertex 119.97724181643436 -10.961835845963627 4.550000000000005
    vertex 126.09724181643489 -4.232289962760607 4.5500000000000105
    vertex 125.97724181643436 -9.761835845963624 4.550000000000005
  endloop
endfacet
facet normal 7.169354978423009e-17 -6.056119909851882e-17 -1.0
  outer loop
    vertex 126.09724181643489 -4.232289962760607 4.5500000000000105
    vertex 130.47724181643434 10.958164154036366 4.550000000000005
    vertex 130.90724181643492 -4.232289962760612 4.550000000000004
  endloop
endfacet
facet normal 7.169354978423009e-17 -6.056119909851882e-17 -1.0
  outer loop
    vertex 115.47724181643434 12.958164154036368 4.550000000000005
    vertex 110.47724181643434 10.958164154036366 4.5500000000000025
    vertex 110.47724181643434 12.958164154036368 4.550000000000005
  endloop
endfacet
facet normal 7.169354978423009e-17 -6.056119909851882e-17 -1.0
  outer loop
    vertex 125.97724181643436 -10.961835845963627 4.550000000000005
    vertex 119.97724181643436 -10.961835845963627 4.550000000000005
    vertex 125.97724181643436 -9.761835845963624 4.550000000000005
  endloop
endfacet
facet normal 1.0 0.0 0.0
  outer loop
    vertex 125.97724181643436 -9.761835845963624 4.550000000000005
    vertex 125.97724181643436 -10.961835845963627 5.550000000000005
    vertex 125.97724181643436 -10.961835845963627 4.550000000000005
  endloop
endfacet
facet normal 1.0 0.0 0.0
  outer loop
    vertex 125.97724181643436 -10.961835845963627 5.550000000000005
    vertex 125.97724181643436 -9.761835845963624 4.550000000000005
    vertex 125.97724181643436 -9.761835845963624 5.550000000000005
  endloop
endfacet
facet normal 0.0 0.0 1.0
  outer loop
    vertex 125.97724181643436 -10.961835845963627 5.550000000000005
    vertex 119.97724181643436 -9.761835845963635 5.550000000000005
    vertex 119.97724181643436 -10.961835845963627 5.550000000000005
  endloop
endfacet
facet normal 0.0 0.0 1.0
  outer loop
    vertex 119.97724181643436 -9.761835845963635 5.550000000000005
    vertex 125.97724181643436 -10.961835845963627 5.550000000000005
    vertex 125.97724181643436 -9.761835845963624 5.550000000000005
  endloop
endfacet
facet normal -1.0 0.0 0.0
  outer loop
    vertex 119.97724181643436 -9.761835845963635 5.550000000000005
    vertex 119.97724181643436 -10.961835845963627 4.550000000000005
    vertex 119.97724181643436 -10.961835845963627 5.550000000000005
  endloop
endfacet
facet normal -1.0 0.0 0.0
  outer loop
    vertex 119.97724181643436 -10.961835845963627 4.550000000000005
    vertex 119.97724181643436 -9.761835845963635 5.550000000000005
    vertex 119.97724181643436 -9.761835845963635 4.550000000000005
  endloop
endfacet
facet normal 0.0 -1.0 0.0
  outer loop
    vertex 125.97724181643436 -10.961835845963627 5.550000000000005
    vertex 119.97724181643436 -10.961835845963627 4.550000000000005
    vertex 125.97724181643436 -10.961835845963627 4.550000000000005
  endloop
endfacet
facet normal 0.0 -1.0 0.0
  outer loop
    vertex 119.97724181643436 -10.961835845963627 4.550000000000005
    vertex 125.97724181643436 -10.961835845963627 5.550000000000005
    vertex 119.97724181643436 -10.961835845963627 5.550000000000005
  endloop
endfacet
facet normal -0.9999999972494347 7.124189306354662e-06 7.382666654103619e-05
  outer loop
    vertex 109.61724181643488 10.958164154036366 4.550000000000004
    vertex 109.61721189483971 -3.6046523541962867 5.550000000000003
    vertex 109.61727173803007 4.795347648788053 5.550000000000003
  endloop
endfacet
facet normal 0.9999999999799916 4.152958134323723e-07 6.312238580993024e-06
  outer loop
    vertex 143.17724181643496 9.466346115104994 4.550000000000005
    vertex 143.1772418164349 -8.27001780703129 7.35000000000001
    vertex 143.1772418164349 -8.27001780703129 4.550000000000007
  endloop
endfacet
facet normal 0.9999999999799916 4.152958134323723e-07 6.312238580993024e-06
  outer loop
    vertex 143.1772418164349 -8.27001780703129 7.35000000000001
    vertex 143.17724181643496 9.466346115104994 4.550000000000005
    vertex 143.17721189483976 -3.6013051250654575 7.35000000000001
  endloop
endfacet
facet normal 0.9999999999794533 6.4104179244427906e-06 1.6622006341174972e-21
  outer loop
    vertex 143.17724181643496 9.466346115104994 4.550000000000005
    vertex 143.1772717380301 4.798694877918883 7.35000000000001
    vertex 143.17721189483976 -3.6013051250654575 7.35000000000001
  endloop
endfacet
facet normal 0.9999999999794533 6.4104179244427906e-06 1.6622006341174972e-21
  outer loop
    vertex 143.1772717380301 4.798694877918883 7.35000000000001
    vertex 143.17724181643496 9.466346115104994 4.550000000000005
    vertex 143.17724181643496 9.466346115104994 7.35000000000001
  endloop
endfacet
facet normal 0.0 1.0 0.0
  outer loop
    vertex 110.47724181643434 12.958164154036368 5.550000000000005
    vertex 115.47724181643434 12.958164154036368 4.550000000000005
    vertex 110.47724181643434 12.958164154036368 4.550000000000005
  endloop
endfacet
facet normal 0.0 1.0 0.0
  outer loop
    vertex 115.47724181643434 12.958164154036368 4.550000000000005
    vertex 110.47724181643434 12.958164154036368 5.550000000000005
    vertex 115.47724181643434 12.958164154036368 5.550000000000005
  endloop
endfacet
facet normal 0.0 0.0 1.0
  outer loop
    vertex 115.47724181643434 10.958164154036366 5.550000000000005
    vertex 110.47724181643434 12.958164154036368 5.550000000000005
    vertex 110.47724181643434 10.958164154036366 5.550000000000005
  endloop
endfacet
facet normal 0.0 0.0 1.0
  outer loop
    vertex 110.47724181643434 12.958164154036368 5.550000000000005
    vertex 115.47724181643434 10.958164154036366 5.550000000000005
    vertex 115.47724181643434 12.958164154036368 5.550000000000005
  endloop
endfacet
facet normal -1.0 0.0 0.0
  outer loop
    vertex 110.47724181643434 12.958164154036368 5.550000000000005
    vertex 110.47724181643434 10.958164154036366 4.5500000000000025
    vertex 110.47724181643434 10.958164154036366 5.550000000000005
  endloop
endfacet
facet normal -1.0 0.0 0.0
  outer loop
    vertex 110.47724181643434 10.958164154036366 4.5500000000000025
    vertex 110.47724181643434 12.958164154036368 5.550000000000005
    vertex 110.47724181643434 12.958164154036368 4.550000000000005
  endloop
endfacet
facet normal 1.0 0.0 0.0
  outer loop
    vertex 115.47724181643434 12.958164154036368 4.550000000000005
    vertex 115.47724181643434 10.958164154036366 5.550000000000005
    vertex 115.47724181643434 10.958164154036366 4.550000000000003
  endloop
endfacet
facet normal 1.0 0.0 0.0
  outer loop
    vertex 115.47724181643434 10.958164154036366 5.550000000000005
    vertex 115.47724181643434 12.958164154036368 4.550000000000005
    vertex 115.47724181643434 12.958164154036368 5.550000000000005
  endloop
endfacet
facet normal -0.999999999987397 -2.5936907430643413e-07 -5.013855180474932e-06
  outer loop
    vertex 109.61721189483971 -3.6046523541962867 7.350000000000008
    vertex 109.61724181643488 -9.761835845963645 4.550000000000004
    vertex 109.61724181643488 -9.761835845963645 7.350000000000008
  endloop
endfacet
facet normal -0.999999999987397 -2.5936907430643413e-07 -5.013855180474932e-06
  outer loop
    vertex 109.61724181643488 -9.761835845963645 4.550000000000004
    vertex 109.61721189483971 -3.6046523541962867 7.350000000000008
    vertex 109.61721189483971 -3.6046523541962867 5.550000000000003
  endloop
endfacet
facet normal -0.999999999987397 -2.5936907430643413e-07 -5.013855180474932e-06
  outer loop
    vertex 109.61724181643488 -9.761835845963645 4.550000000000004
    vertex 109.61721189483971 -3.6046523541962867 5.550000000000003
    vertex 109.61724181643488 10.958164154036366 4.550000000000004
  endloop
endfacet
facet normal 0.0 1.0 0.0
  outer loop
    vertex 109.61724181643488 10.958164154036366 4.550000000000004
    vertex 110.47724181643434 10.958164154036366 5.550000000000005
    vertex 110.47724181643434 10.958164154036366 4.5500000000000025
  endloop
endfacet
facet normal 0.0 1.0 0.0
  outer loop
    vertex 110.47724181643434 10.958164154036366 5.550000000000005
    vertex 109.61724181643488 10.958164154036366 4.550000000000004
    vertex 109.61724181643488 10.958164154036366 7.350000000000008
  endloop
endfacet
facet normal 0.0 1.0 0.0
  outer loop
    vertex 110.47724181643434 10.958164154036366 5.550000000000005
    vertex 109.61724181643488 10.958164154036366 7.350000000000008
    vertex 115.47724181643434 10.958164154036366 5.550000000000005
  endloop
endfacet
facet normal 0.0 1.0 0.0
  outer loop
    vertex 115.47724181643434 10.958164154036366 5.550000000000005
    vertex 109.61724181643488 10.958164154036366 7.350000000000008
    vertex 130.47724181643434 10.958164154036366 5.550000000000005
  endloop
endfacet
facet normal 0.0 1.0 0.0
  outer loop
    vertex 130.47724181643434 10.958164154036366 5.550000000000005
    vertex 109.61724181643488 10.958164154036366 7.350000000000008
    vertex 135.47724181643434 10.958164154036366 5.550000000000005
  endloop
endfacet
facet normal 0.0 1.0 0.0
  outer loop
    vertex 135.47724181643434 10.958164154036366 5.550000000000005
    vertex 140.48051460086194 10.958164154036366 4.550000000000005
    vertex 135.47724181643434 10.958164154036366 4.550000000000005
  endloop
endfacet
facet normal 0.0 1.0 0.0
  outer loop
    vertex 140.48051460086194 10.958164154036366 4.550000000000005
    vertex 135.47724181643434 10.958164154036366 5.550000000000005
    vertex 140.48051460086194 10.958164154036366 7.35000000000001
  endloop
endfacet
facet normal 0.0 1.0 0.0
  outer loop
    vertex 140.48051460086194 10.958164154036366 7.35000000000001
    vertex 135.47724181643434 10.958164154036366 5.550000000000005
    vertex 109.61724181643488 10.958164154036366 7.350000000000008
  endloop
endfacet
facet normal 0.0 1.0 0.0
  outer loop
    vertex 115.47724181643434 10.958164154036366 5.550000000000005
    vertex 130.47724181643434 10.958164154036366 4.550000000000005
    vertex 115.47724181643434 10.958164154036366 4.550000000000003
  endloop
endfacet
facet normal 0.0 1.0 0.0
  outer loop
    vertex 130.47724181643434 10.958164154036366 4.550000000000005
    vertex 115.47724181643434 10.958164154036366 5.550000000000005
    vertex 130.47724181643434 10.958164154036366 5.550000000000005
  endloop
endfacet
facet normal 0.0 1.0 0.0
  outer loop
    vertex 130.47724181643434 12.958164154036368 5.550000000000005
    vertex 135.47724181643434 12.958164154036368 4.550000000000005
    vertex 130.47724181643434 12.958164154036368 4.550000000000005
  endloop
endfacet
facet normal 0.0 1.0 0.0
  outer loop
    vertex 135.47724181643434 12.958164154036368 4.550000000000005
    vertex 130.47724181643434 12.958164154036368 5.550000000000005
    vertex 135.47724181643434 12.958164154036368 5.550000000000005
  endloop
endfacet
facet normal 0.0 0.0 1.0
  outer loop
    vertex 135.47724181643434 10.958164154036366 5.550000000000005
    vertex 130.47724181643434 12.958164154036368 5.550000000000005
    vertex 130.47724181643434 10.958164154036366 5.550000000000005
  endloop
endfacet
facet normal 0.0 0.0 1.0
  outer loop
    vertex 130.47724181643434 12.958164154036368 5.550000000000005
    vertex 135.47724181643434 10.958164154036366 5.550000000000005
    vertex 135.47724181643434 12.958164154036368 5.550000000000005
  endloop
endfacet
facet normal 1.0 0.0 0.0
  outer loop
    vertex 135.47724181643434 12.958164154036368 4.550000000000005
    vertex 135.47724181643434 10.958164154036366 5.550000000000005
    vertex 135.47724181643434 10.958164154036366 4.550000000000005
  endloop
endfacet
facet normal 1.0 0.0 0.0
  outer loop
    vertex 135.47724181643434 10.958164154036366 5.550000000000005
    vertex 135.47724181643434 12.958164154036368 4.550000000000005
    vertex 135.47724181643434 12.958164154036368 5.550000000000005
  endloop
endfacet
facet normal -1.0 0.0 0.0
  outer loop
    vertex 130.47724181643434 12.958164154036368 5.550000000000005
    vertex 130.47724181643434 10.958164154036366 4.550000000000005
    vertex 130.47724181643434 10.958164154036366 5.550000000000005
  endloop
endfacet
facet normal -1.0 0.0 0.0
  outer loop
    vertex 130.47724181643434 10.958164154036366 4.550000000000005
    vertex 130.47724181643434 12.958164154036368 5.550000000000005
    vertex 130.47724181643434 12.958164154036368 4.550000000000005
  endloop
endfacet
endsolid housing
